<svg xmlns="http://www.w3.org/2000/svg" viewBox="0 0 750 500"><defs><style>.cls-1{isolation:isolate;}.cls-2{fill:#f5efe0;}.cls-20,.cls-3{opacity:0.5;}.cls-4{fill:#dbccba;}.cls-5{fill:#1f271d;}.cls-6{fill:#c47b38;}.cls-7{fill:#9e5022;}.cls-8{fill:#514933;}.cls-9{fill:#1f294a;}.cls-10{fill:#3d4c83;}.cls-11{fill:#40401e;}.cls-12{fill:#66652b;}.cls-13{fill:#a64b31;}.cls-14{fill:#783013;}.cls-15{fill:#d9cab8;}.cls-16{fill:#7a5f2e;}.cls-17{fill:#533d15;}.cls-18{fill:#9c5022;}.cls-19{fill:#c27b38;}.cls-20{mix-blend-mode:multiply;}.cls-21{fill:#b6a593;}.cls-22{fill:#9d5949;}.cls-23{fill:#ca816d;}.cls-24{fill:#8c503d;}.cls-25{fill:#b67158;}.cls-26{fill:#f6e8cb;}.cls-27{fill:#e0cbac;}.cls-28{fill:#faefe6;}.cls-29{fill:#1c192c;}.cls-30{fill:#434356;}.cls-31{fill:#343345;}.cls-32{fill:#4a0e2f;}.cls-33{fill:#1d1e1e;}.cls-34{fill:#fff;}.cls-35{fill:#4e2626;}.cls-36{fill:#38102b;}.cls-37{fill:#5f1234;}.cls-38{fill:#df6433;}.cls-39{fill:#467b7d;}.cls-40{fill:#3b6868;}.cls-41{fill:#e6b35c;}</style></defs><title>hero_image</title><g class="cls-1"><g id="BACKGROUND"><rect class="cls-2" width="750" height="500"/></g><g id="OBJECTS"><g class="cls-3"><path class="cls-4" d="M629.79,189.79c0-52.52-43.74-110.06-98.15-113.54l-2.9-.16c-78-3.63-84,91.52-154.54,102.25S230.66,137.72,165,172.72C92.45,211.41,68.85,380.38,291.72,387.53,470,393.25,629.81,346.47,629.79,189.79Z"/></g><path class="cls-4" d="M644.18,146a13.3,13.3,0,0,0,3.47-1.18l3.65,4.11,4.5-4L652.31,141a13.71,13.71,0,0,0,1.93-3.46l6.14.36.35-6-5.66-.33a13.53,13.53,0,0,0-1.38-4.9L657.8,123l-4-4.5L649.86,122a13.3,13.3,0,0,0-4.15-2.17l.3-5.09-6-.35-.29,4.92a13.46,13.46,0,0,0-5.09,1.8l-3.49-3.93-4.5,4,3.65,4.11a13.7,13.7,0,0,0-1.58,3.3l-5.8-.34-.36,6,5.64.33a13.28,13.28,0,0,0,1.8,5.1l-3.93,3.49,4,4.5,4.11-3.65a13.42,13.42,0,0,0,4,1.79l-.33,5.63,6,.36Zm-6.72-9.61a5.52,5.52,0,1,1,7.8.45A5.53,5.53,0,0,1,637.46,136.38Z"/><path class="cls-4" d="M623.93,109.46a7.34,7.34,0,0,0,1.9-.64l2,2.26,2.47-2.18-1.91-2.16a7.18,7.18,0,0,0,1.07-1.88l3.35.21.21-3.28-3.1-.2a7.3,7.3,0,0,0-.74-2.68l2.25-2-2.18-2.46-2.15,1.9a7.36,7.36,0,0,0-2.26-1.2l.17-2.78-3.28-.21-.17,2.69a7.34,7.34,0,0,0-2.79,1l-1.9-2.16-2.47,2.18,2,2.25a7.11,7.11,0,0,0-.87,1.8l-3.17-.19-.21,3.28,3.08.19a7.5,7.5,0,0,0,1,2.79l-2.15,1.9,2.18,2.47,2.25-2a7.26,7.26,0,0,0,2.18,1l-.19,3.08,3.28.2Zm-3.65-5.27a3,3,0,1,1,4.26.27A3,3,0,0,1,620.28,104.19Z"/><path class="cls-4" d="M103.56,320.08l4.8-3.63L105,312a13.61,13.61,0,0,0,2.34-3.72l5.44.76.83-6-5.21-.72a13.48,13.48,0,0,0-1.34-5.23l4.51-3.41-3.64-4.8-4.64,3.51a13.62,13.62,0,0,0-3.14-1.88l.75-5.44-6-.83-.72,5.21a13.36,13.36,0,0,0-5.24,1.34l-3-3.94-4.81,3.63,3.08,4.08a13.61,13.61,0,0,0-2.24,4.1l-5.21-.72-.83,6,5.44.75A13.52,13.52,0,0,0,83,309.48l-4.53,3.43,3.64,4.8L87,314a13.8,13.8,0,0,0,3.53,1.79L89.79,321l6,.83.75-5.44a13.61,13.61,0,0,0,3.54-.95Zm-9.49-11.66a5.52,5.52,0,1,1,6.23-4.7A5.53,5.53,0,0,1,94.07,308.42Z"/><path class="cls-4" d="M99.61,275.42l2.61-2L100.35,271a7.28,7.28,0,0,0,1.27-2l3,.4.44-3.26-2.85-.38a7.34,7.34,0,0,0-.74-2.86L103.9,261l-2-2.62-2.53,1.93a7.81,7.81,0,0,0-1.72-1l.4-3-3.26-.44-.39,2.85a7.33,7.33,0,0,0-2.86.73l-1.63-2.14-2.62,2L89,261.51a7.18,7.18,0,0,0-1.21,2.25l-2.85-.39-.44,3.26,3,.4a7.54,7.54,0,0,0,.88,2.65l-2.47,1.88,2,2.61,2.67-2a7,7,0,0,0,1.93,1L92.09,276l3.26.44.4-3a7.44,7.44,0,0,0,1.93-.52Zm-5.21-6.35a3,3,0,1,1,3.39-2.58A3,3,0,0,1,94.4,269.07Z"/><ellipse class="cls-4" cx="386.53" cy="454.54" rx="295.45" ry="11.5"/><path class="cls-5" d="M376.63,304.71h139.3a7.74,7.74,0,0,1,7.74,7.74v.69a.28.28,0,0,1-.28.28H369.18a.28.28,0,0,1-.28-.28v-.69A7.74,7.74,0,0,1,376.63,304.71Z"/><path class="cls-6" d="M498.08,294.58v10.29H394.48V294.58a6.32,6.32,0,0,1,6.33-6.33h90.94A6.32,6.32,0,0,1,498.08,294.58Z"/><rect class="cls-7" x="394.48" y="300.91" width="103.6" height="3.96"/><rect class="cls-5" x="443.64" y="106.17" width="5.29" height="175.75"/><rect class="cls-5" x="439.65" y="225.68" width="13.26" height="62.57"/><rect class="cls-8" x="439.65" y="274.59" width="13.26" height="1.7"/><rect class="cls-8" x="439.65" y="263.96" width="13.26" height="1.7"/><rect class="cls-8" x="439.65" y="253.32" width="13.26" height="1.7"/><circle class="cls-6" cx="446.32" cy="221.24" r="9.14" transform="translate(-50.77 188.79) rotate(-22.63)"/><path class="cls-5" d="M411.28,114.15c-17,5.69-45.52,9.06-68.5,10.61v4.55h103.5V106.46S437.6,105.36,411.28,114.15Z"/><path class="cls-5" d="M550.55,124.81c-23.11-1.52-52-4.9-69.27-10.66-26.32-8.79-35-7.69-35-7.69v22.85H550.55Z"/><path class="cls-5" d="M438.1,107.57s-.17-10.34,8.18-24.42V143s-4.26-.69-6.82-13.68Z"/><path class="cls-5" d="M454.46,107.57s.17-10.34-8.18-24.42V143s4.26-.69,6.82-13.68Z"/><path class="cls-8" d="M439.32,129a.31.31,0,0,1-.29-.22,68,68,0,0,1-1.22-21.26.28.28,0,0,1,.32-.25.29.29,0,0,1,.26.33,67.16,67.16,0,0,0,1.21,21,.28.28,0,0,1-.21.35Z"/><path class="cls-8" d="M453.31,129h-.07a.28.28,0,0,1-.21-.35,66.81,66.81,0,0,0,1.21-21,.3.3,0,0,1,.26-.33.28.28,0,0,1,.32.25,67.34,67.34,0,0,1-1.22,21.26A.31.31,0,0,1,453.31,129Z"/><path class="cls-6" d="M455.46,85.39a9.14,9.14,0,1,1-9.14-9.13A9.14,9.14,0,0,1,455.46,85.39Z"/><path class="cls-7" d="M446.32,90.73a5.34,5.34,0,1,1,5.34-5.34A5.34,5.34,0,0,1,446.32,90.73Z"/><path class="cls-9" d="M286.49,222.6s24-7.82,62-7.82,58.77,7.82,58.77,7.82a193.55,193.55,0,0,1-58.8,9.65C316.47,232.25,286.49,222.6,286.49,222.6Z"/><path class="cls-5" d="M297.38,224.92a1.24,1.24,0,0,1-.58-.14,1.31,1.31,0,0,1-.58-1.75l49.14-97.16a1.3,1.3,0,0,1,2.32,1.18l-49.13,97.16A1.31,1.31,0,0,1,297.38,224.92Z"/><path class="cls-5" d="M396.51,225.13a1.32,1.32,0,0,1-1.16-.71l-50-97.37a1.3,1.3,0,1,1,2.32-1.18l50,97.36a1.31,1.31,0,0,1-1.16,1.9Z"/><path class="cls-10" d="M286.49,222.6c42.62,8.59,83.2,9.74,120.79,0,0,0-8.38,41.65-60.39,41.65S286.49,222.6,286.49,222.6Z"/><path class="cls-5" d="M354.67,126.46a7.32,7.32,0,1,1-7.32-7.32A7.32,7.32,0,0,1,354.67,126.46Z"/><path class="cls-8" d="M347.35,131.22a4.76,4.76,0,1,1,4.76-4.76A4.77,4.77,0,0,1,347.35,131.22Z"/><path class="cls-9" d="M486,222.6s24-7.82,62-7.82,58.78,7.82,58.78,7.82a193.55,193.55,0,0,1-58.8,9.65C516,232.25,486,222.6,486,222.6Z"/><path class="cls-5" d="M496.92,224.92a1.25,1.25,0,0,1-.59-.14,1.3,1.3,0,0,1-.57-1.75l49.13-97.16a1.31,1.31,0,0,1,2.33,1.18l-49.14,97.16A1.31,1.31,0,0,1,496.92,224.92Z"/><path class="cls-5" d="M596.05,225.13a1.31,1.31,0,0,1-1.16-.71l-50-97.37a1.3,1.3,0,1,1,2.31-1.18l50,97.36a1.31,1.31,0,0,1-.57,1.75A1.26,1.26,0,0,1,596.05,225.13Z"/><path class="cls-10" d="M486,222.6c42.62,8.59,83.19,9.74,120.79,0,0,0-8.38,41.65-60.4,41.65S486,222.6,486,222.6Z"/><path class="cls-5" d="M553.54,126.46a7.32,7.32,0,1,1-7.32-7.32A7.32,7.32,0,0,1,553.54,126.46Z"/><path class="cls-8" d="M546.22,131.22a4.76,4.76,0,1,1,4.76-4.76A4.77,4.77,0,0,1,546.22,131.22Z"/><path class="cls-11" d="M145.17,408.77s-10,2.21-8.49-4.75,1.37-9.53-2.69-12.69-8.13-4.73-5-9.74-2.79-8.9-5.83-11.59.39-4.73,1.19-9.83-4.67-4.33-5.1-10.75,6.09-13.92.48-22.75c0,0,7.53,3.9,10,10.76s.47,12.16,4.92,14.77,7.23,7.12,5.72,11.74.64,7.09,4.29,10.46,2.67,4.72,2.22,8.85.45,3.15,4.63,8.79S155.78,406.92,145.17,408.77Z"/><path class="cls-5" d="M146.59,408.46a.54.54,0,0,1-.05-.11l-20-60.58a.49.49,0,0,1,.32-.62h0a.5.5,0,0,1,.62.32l20,60.58a.8.8,0,0,1,0,.15Z"/><path class="cls-11" d="M163.17,408.64s9.92,2.2,8.44-4.72-1.36-9.48,2.67-12.62,8.09-4.71,5-9.69,2.77-8.85,5.8-11.53-.39-4.71-1.19-9.78,4.65-4.3,5.08-10.69-6.06-13.84-.48-22.63c0,0-7.49,3.88-10,10.71s-.48,12.09-4.9,14.68-7.2,7.08-5.7,11.69-.63,7-4.26,10.4-2.66,4.69-2.21,8.8-.45,3.13-4.6,8.74S152.61,406.8,163.17,408.64Z"/><path class="cls-5" d="M160.84,408.06a.59.59,0,0,1,0-.14l19.86-60.26a.5.5,0,0,1,.61-.32h0a.48.48,0,0,1,.31.62L161.8,408.23a.31.31,0,0,1-.05.1Z"/><path class="cls-12" d="M152.15,407.38s-11.42-.95-7.52-7.91,4.63-9.74,1.34-14.48-7.14-7.76-2.15-12.09,0-10.46-2.39-14.36,2-4.94,4.54-10.13-3.57-6.19-1.9-13.2,11.15-12.89,8.08-24.22c0,0,6.77,6.69,7.14,14.86s-3.53,13.18.37,17.45,5.38,10,2.23,14.48-1.67,7.79,1.11,12.62,1.3,5.94-.56,10.21-.55,3.53,2.05,10.95S164.13,408.92,152.15,407.38Z"/><path class="cls-11" d="M153.77,407.52a.51.51,0,0,1,0-.13l-1.25-71.51a.55.55,0,0,1,.54-.57h0a.57.57,0,0,1,.56.55l1.26,71.51a1,1,0,0,1,0,.17Z"/><polygon class="cls-5" points="126.21 402.41 127.23 406.21 127.43 406.94 128.36 410.38 128.56 411.12 137.77 445.27 137.97 446.01 138.9 449.45 139.09 450.18 140.14 454.07 166.51 454.07 167.56 450.18 167.76 449.45 168.69 446.01 168.88 445.27 178.1 411.12 178.3 410.38 179.22 406.94 179.42 406.21 180.45 402.41 126.21 402.41"/><polygon class="cls-8" points="179.42 406.21 179.22 406.94 127.43 406.94 127.23 406.21 179.42 406.21"/><polygon class="cls-8" points="178.3 410.38 178.1 411.12 128.56 411.12 128.36 410.38 178.3 410.38"/><polygon class="cls-8" points="168.88 445.27 168.69 446.01 137.97 446.01 137.77 445.27 168.88 445.27"/><polygon class="cls-8" points="167.76 449.45 167.56 450.18 139.09 450.18 138.9 449.45 167.76 449.45"/><path class="cls-13" d="M310.59,407v47.22H516A23.61,23.61,0,0,0,516,407Z"/><path class="cls-14" d="M310.59,407v47.22H494.33a23.61,23.61,0,0,0,0-47.22Z"/><path class="cls-2" d="M325.54,414.4h184.8a.53.53,0,0,1,.53.53v31.4a.53.53,0,0,1-.53.53H325.54a14.95,14.95,0,0,1-14.95-14.95v-2.56A14.95,14.95,0,0,1,325.54,414.4Z" transform="translate(821.46 861.26) rotate(180)"/><path class="cls-15" d="M494.91,423.05l-184.32-.23V420.4l184.31.23a1.21,1.21,0,0,1,1.21,1.21h0A1.21,1.21,0,0,1,494.91,423.05Z"/><path class="cls-15" d="M494.91,431.16l-184.32-.22v-2.42l184.31.22a1.21,1.21,0,0,1,1.21,1.21h0A1.21,1.21,0,0,1,494.91,431.16Z"/><path class="cls-15" d="M494.91,439.65l-184.32-.23V437l184.31.23a1.21,1.21,0,0,1,1.21,1.21h0A1.21,1.21,0,0,1,494.91,439.65Z"/><path class="cls-16" d="M335.59,360.2v47.21H541a23.61,23.61,0,1,0,0-47.21Z"/><path class="cls-17" d="M335.59,360.2v47.21H519.32a23.61,23.61,0,1,0,0-47.21Z"/><path class="cls-2" d="M350.54,367.58H535.87a0,0,0,0,1,0,0V400a0,0,0,0,1,0,0H350.54a14.95,14.95,0,0,1-14.95-14.95v-2.56A14.95,14.95,0,0,1,350.54,367.58Z" transform="translate(871.46 767.61) rotate(180)"/><path class="cls-15" d="M519.9,384.34l-184.31-.23v-2.42l184.32.23a1.21,1.21,0,0,1,1.2,1.21h0A1.21,1.21,0,0,1,519.9,384.34Z"/><path class="cls-15" d="M519.9,392.82l-184.31-.22v-2.42l184.32.22a1.21,1.21,0,0,1,1.2,1.21h0A1.21,1.21,0,0,1,519.9,392.82Z"/><path class="cls-15" d="M519.9,376.22,335.59,376v-2.42l184.32.22a1.21,1.21,0,0,1,1.2,1.21h0A1.21,1.21,0,0,1,519.9,376.22Z"/><path class="cls-10" d="M319.84,313.4v47.21H525.28a23.61,23.61,0,0,0,0-47.21Z"/><path class="cls-9" d="M319.84,313.4v47.21H503.57a23.61,23.61,0,0,0,0-47.21Z"/><path class="cls-2" d="M334.79,320.78H520.12a0,0,0,0,1,0,0v32.46a0,0,0,0,1,0,0H334.79a14.95,14.95,0,0,1-14.95-14.95v-2.56A14.95,14.95,0,0,1,334.79,320.78Z" transform="translate(839.95 674.01) rotate(180)"/><path class="cls-15" d="M504.15,329.42l-184.31-.22v-2.42l184.32.22a1.22,1.22,0,0,1,1.2,1.21h0A1.2,1.2,0,0,1,504.15,329.42Z"/><path class="cls-15" d="M504.15,337.54l-184.31-.23v-2.42l184.32.23a1.21,1.21,0,0,1,1.2,1.21h0A1.21,1.21,0,0,1,504.15,337.54Z"/><path class="cls-15" d="M504.15,346l-184.31-.22v-2.42l184.32.22a1.21,1.21,0,0,1,1.2,1.21h0A1.21,1.21,0,0,1,504.15,346Z"/><polygon class="cls-13" points="363.36 326.88 363.36 350.03 356.1 342.77 348.59 350.28 348.59 326.78 363.36 326.88"/><path class="cls-18" d="M617.28,454.24c-89.07-48.63-70.43-124.52-70.43-124.52,48.62-.91,70.43-46.8,70.43-46.8s21.81,45.89,70.44,46.8C687.72,329.72,706.35,405.61,617.28,454.24Z"/><path class="cls-19" d="M617.28,444.86c-17.31-10-31.35-21.8-41.76-35.15a103.9,103.9,0,0,1-18.73-37.23,97.44,97.44,0,0,1-2.88-35c19.4-2,37.32-10.8,52.19-25.74a108.13,108.13,0,0,0,11.18-13.25,108.29,108.29,0,0,0,11.19,13.25c14.86,14.94,32.79,23.75,52.19,25.74a97.73,97.73,0,0,1-2.89,35,103.87,103.87,0,0,1-18.72,37.23C648.63,423.06,634.59,434.87,617.28,444.86Z"/><circle class="cls-18" cx="617.28" cy="374.33" r="39" transform="translate(149.98 924.59) rotate(-80.89)"/><path class="cls-19" d="M617.28,407.69a33.36,33.36,0,1,1,23.59-9.77A33.12,33.12,0,0,1,617.28,407.69Z"/><path class="cls-18" d="M617.48,353.21c10.68,0,17.93,6.39,19.59,15.93H623.71a6.88,6.88,0,0,0-6.46-4.23c-4.28,0-6.91,3.48-6.91,8.85s2.63,8.85,6.91,8.85a6.89,6.89,0,0,0,6.46-4.22h13.36c-1.66,9.53-8.91,15.93-19.59,15.93-12.39,0-20-8.51-20-20.56S605.09,353.21,617.48,353.21Z"/><path class="cls-18" d="M562.52,344.26a2.28,2.28,0,1,1-2.28-2.27A2.28,2.28,0,0,1,562.52,344.26Z"/><path class="cls-18" d="M677,344.26a2.27,2.27,0,1,1-2.27-2.27A2.28,2.28,0,0,1,677,344.26Z"/><path class="cls-18" d="M619.55,310a2.28,2.28,0,1,1-2.28-2.28A2.28,2.28,0,0,1,619.55,310Z"/><path class="cls-18" d="M619.55,438.78a2.28,2.28,0,1,1-2.28-2.27A2.28,2.28,0,0,1,619.55,438.78Z"/><rect class="cls-4" x="106.44" y="65.24" width="82.19" height="26.28" rx="2.1" ry="2.1" transform="translate(0.11 -0.21) rotate(0.08)"/><rect class="cls-2" x="137.38" y="73.11" width="46.64" height="2.31" rx="1.06" ry="1.06" transform="translate(0.11 -0.23) rotate(0.08)"/><rect class="cls-2" x="137.37" y="78.19" width="46.64" height="2.31" rx="1.06" ry="1.06" transform="translate(0.11 -0.23) rotate(0.08)"/><rect class="cls-2" x="137.36" y="82.81" width="46.64" height="2.31" rx="1.06" ry="1.06" transform="translate(0.12 -0.23) rotate(0.08)"/><path class="cls-6" d="M120.83,87.41h0a9.48,9.48,0,0,1-9.47-9.5h0a9.48,9.48,0,0,1,9.5-9.47h0a9.49,9.49,0,0,1,9.47,9.5h0A9.48,9.48,0,0,1,120.83,87.41Z"/><path class="cls-2" d="M121.9,82.23v1.44h-1.83V82.28a7.54,7.54,0,0,1-3.32-.94l1-2.22a6.2,6.2,0,0,0,3,.86c.87,0,1.18-.17,1.19-.48,0-1.14-5-.27-5-3.65,0-1.47,1.09-2.69,3.22-3V71.47l1.83,0v1.38a6.75,6.75,0,0,1,2.62.78l-.94,2.21a5.66,5.66,0,0,0-2.52-.7c-.89,0-1.18.25-1.18.56,0,1.09,5,.23,5,3.57C124.94,80.69,123.91,81.9,121.9,82.23Z"/><rect class="cls-4" x="106.39" y="97.54" width="82.19" height="26.28" rx="2.1" ry="2.1" transform="translate(0.16 -0.21) rotate(0.08)"/><rect class="cls-2" x="137.33" y="105.41" width="46.64" height="2.31" rx="1.06" ry="1.06" transform="translate(0.15 -0.23) rotate(0.08)"/><rect class="cls-2" x="137.32" y="110.49" width="46.64" height="2.31" rx="1.06" ry="1.06" transform="translate(0.16 -0.23) rotate(0.08)"/><rect class="cls-2" x="137.32" y="115.1" width="46.64" height="2.31" rx="1.06" ry="1.06" transform="translate(0.17 -0.23) rotate(0.08)"/><path class="cls-12" d="M120.78,119.7h0a9.48,9.48,0,0,1-9.47-9.5h0a9.5,9.5,0,0,1,9.5-9.47h0a9.48,9.48,0,0,1,9.47,9.5h0A9.48,9.48,0,0,1,120.78,119.7Z"/><polygon class="cls-2" points="117.76 115.7 114.77 111.57 116.56 110.27 118 112.26 125.23 104.73 126.82 106.26 117.76 115.7"/><rect class="cls-4" x="86.43" y="148.4" width="36.49" height="45.59"/><path class="cls-2" d="M117.09,155.53H92.21a.74.74,0,0,1,0-1.48h24.88a.74.74,0,1,1,0,1.48Z"/><path class="cls-2" d="M117.09,160.11H92.21a.74.74,0,0,1,0-1.48h24.88a.74.74,0,0,1,0,1.48Z"/><path class="cls-2" d="M117.09,164.69H92.21a.74.74,0,0,1,0-1.48h24.88a.74.74,0,1,1,0,1.48Z"/><path class="cls-2" d="M117.09,169.27H92.21a.74.74,0,1,1,0-1.48h24.88a.74.74,0,0,1,0,1.48Z"/><path class="cls-2" d="M117.09,173.85H92.21a.74.74,0,0,1,0-1.48h24.88a.74.74,0,0,1,0,1.48Z"/><path class="cls-2" d="M117.09,178.43H92.21a.74.74,0,1,1,0-1.48h24.88a.74.74,0,0,1,0,1.48Z"/><path class="cls-2" d="M101.27,186.92H92.21a.74.74,0,0,1,0-1.48h9.06a.74.74,0,0,1,0,1.48Z"/><path class="cls-2" d="M117.09,186.92H108a.74.74,0,0,1,0-1.48h9.07a.74.74,0,0,1,0,1.48Z"/><g class="cls-20"><rect class="cls-21" x="86.43" y="148.4" width="18.56" height="35.1"/></g><rect class="cls-4" x="65.55" y="134.16" width="36.49" height="45.6"/><path class="cls-2" d="M96.2,141.3H71.33a.76.76,0,0,1-.75-.75.75.75,0,0,1,.75-.74H96.2a.75.75,0,0,1,.75.74A.76.76,0,0,1,96.2,141.3Z"/><path class="cls-2" d="M96.2,145.88H71.33a.76.76,0,0,1-.75-.75.75.75,0,0,1,.75-.74H96.2a.75.75,0,0,1,.75.74A.76.76,0,0,1,96.2,145.88Z"/><path class="cls-2" d="M96.2,150.46H71.33a.75.75,0,1,1,0-1.49H96.2a.75.75,0,1,1,0,1.49Z"/><path class="cls-2" d="M96.2,155H71.33a.75.75,0,1,1,0-1.49H96.2a.75.75,0,1,1,0,1.49Z"/><path class="cls-2" d="M96.2,159.62H71.33a.75.75,0,1,1,0-1.49H96.2a.75.75,0,1,1,0,1.49Z"/><path class="cls-2" d="M96.2,164.2H71.33a.75.75,0,0,1-.75-.74.76.76,0,0,1,.75-.75H96.2a.76.76,0,0,1,.75.75A.75.75,0,0,1,96.2,164.2Z"/><path class="cls-2" d="M80.39,172.68H71.33a.74.74,0,1,1,0-1.48h9.06a.74.74,0,1,1,0,1.48Z"/><path class="cls-2" d="M96.2,172.68H87.14a.74.74,0,1,1,0-1.48H96.2a.74.74,0,1,1,0,1.48Z"/><path class="cls-5" d="M307.27,69.05h-5.52v0h0a13.75,13.75,0,0,0-.57-3.6,13.53,13.53,0,0,0-25.91,0,13.75,13.75,0,0,0-.57,3.6h0v0h-5.52v0h0a19.06,19.06,0,0,1,19-18.74,19.07,19.07,0,0,1,18.65,15.14,19.55,19.55,0,0,1,.4,3.6h0Z"/><rect class="cls-6" x="263.4" y="70.11" width="49.64" height="36.82"/><path class="cls-7" d="M315.41,104.58v.07a2.35,2.35,0,0,1-.69,1.59,2.3,2.3,0,0,1-1.65.69H263.24a2.35,2.35,0,0,1-2.34-2.28v-.07a2.36,2.36,0,0,1,2.34-2.34h49.83A2.34,2.34,0,0,1,315.41,104.58Z"/><path class="cls-5" d="M285.13,98.14l1.26-9.44-1-.67A5,5,0,1,1,291,88l-1,.67,1.26,9.44Z"/><path class="cls-7" d="M268,99a1.21,1.21,0,1,1-1.21-1.21A1.21,1.21,0,0,1,268,99Z"/><path class="cls-7" d="M268,76.67a1.21,1.21,0,1,1-1.21-1.21A1.21,1.21,0,0,1,268,76.67Z"/><path class="cls-7" d="M310.66,99a1.21,1.21,0,1,1-1.21-1.21A1.21,1.21,0,0,1,310.66,99Z"/><path class="cls-7" d="M310.66,76.67a1.21,1.21,0,1,1-1.21-1.21A1.21,1.21,0,0,1,310.66,76.67Z"/><path class="cls-7" d="M315.48,71.36v0a2.36,2.36,0,0,1-2.34,2.31H263.31A2.34,2.34,0,0,1,261,71.4v0A2.36,2.36,0,0,1,263.31,69h49.83A2.34,2.34,0,0,1,315.48,71.36Z"/><path class="cls-13" d="M680.38,214.64l0,26.1a2.23,2.23,0,0,1-2.23,2.23H651.32a2.23,2.23,0,0,1-2.23-2.23l0-26.1a2.23,2.23,0,0,1,2.23-2.23l26.81,0A2.23,2.23,0,0,1,680.38,214.64Z"/><path class="cls-5" d="M647.17,230.52a.34.34,0,0,1-.34-.34V213.05a2.89,2.89,0,0,1,2.88-2.88H664a.34.34,0,1,1,0,.67H649.71a2.21,2.21,0,0,0-2.2,2.21v17.13A.34.34,0,0,1,647.17,230.52Z"/><path class="cls-2" d="M655.38,227.68a9.36,9.36,0,1,0,9.36-9.35A9.36,9.36,0,0,0,655.38,227.68Zm5.25,3.45a12.78,12.78,0,0,1-.5-3.27h4.23v3.27Zm2.21,4.94a8.54,8.54,0,0,1-5.6-4.19h2.84a10.47,10.47,0,0,0,1.63,3A9.3,9.3,0,0,0,662.84,236.07Zm1.52-4.19v4.39a8,8,0,0,1-2.08-1.89,9.8,9.8,0,0,1-1.39-2.5Zm-3.27-8.81a11.69,11.69,0,0,1,2.93-4l.34,0v4Zm-3.61,0a8.61,8.61,0,0,1,5.23-3.75,12.13,12.13,0,0,0-1.18,1.46,12.77,12.77,0,0,0-1.26,2.29Zm2.66,4a10.45,10.45,0,0,1,.65-3.27h3.57v3.27Zm-4,0a8.44,8.44,0,0,1,.9-3.27H660a11.45,11.45,0,0,0-.61,3.27Zm3.23.76a12.78,12.78,0,0,0,.47,3.27h-3a8.37,8.37,0,0,1-.72-3.27Zm10.62,0h3.33a8.37,8.37,0,0,1-.72,3.27h-3.07A13.24,13.24,0,0,0,670,227.86Zm-4.89-4.79v-4h.24a11.35,11.35,0,0,1,1.9,2.12,12.49,12.49,0,0,1,1,1.85Zm3.49.76a10.86,10.86,0,0,1,.65,3.27h-4.14v-3.27Zm.51-.76a12.18,12.18,0,0,0-1.26-2.29,11.74,11.74,0,0,0-1.21-1.49,8.65,8.65,0,0,1,5.35,3.78Zm.14,4.79a11.84,11.84,0,0,1-.5,3.27h-3.64v-3.27Zm.75-.76a11.44,11.44,0,0,0-.6-3.27h3a8.49,8.49,0,0,1,.9,3.27Zm2.23,4.78a8.66,8.66,0,0,1-5.71,4.21,8.45,8.45,0,0,0,1.15-1.23,10.23,10.23,0,0,0,1.63-3Zm-3.73,0a8.89,8.89,0,0,1-3.39,4.34v-4.34Z"/><path class="cls-10" d="M649.11,258.85l0,26.09a2.23,2.23,0,0,0,2.23,2.23l16.89,0h9.91a2.23,2.23,0,0,0,2.23-2.23l0-26.1a2.23,2.23,0,0,0-2.23-2.22l-26.8,0A2.23,2.23,0,0,0,649.11,258.85Z"/><path class="cls-5" d="M647.58,275.18a.34.34,0,0,1-.33-.34V257.71a2.88,2.88,0,0,1,2.88-2.88h14.28a.34.34,0,0,1,.34.34.34.34,0,0,1-.34.34H650.13a2.21,2.21,0,0,0-2.21,2.2v17.13A.34.34,0,0,1,647.58,275.18Z"/><polygon class="cls-2" points="659.6 280.97 655.05 274.67 657.78 272.69 659.97 275.73 670.98 264.25 673.41 266.58 659.6 280.97"/><path class="cls-22" d="M336.12,216.49a7,7,0,0,1-3.32,2.74c-2.35,1.22-4.67,2.74-7,4l-4.5,4.24-5.5-5.34-1.61-1.57,4.45-4a30,30,0,0,1,.43-11.64,42.13,42.13,0,0,0,1.3-4.51c.29-2-.09-4,0-6a1.94,1.94,0,0,1,.39-1.29,1.38,1.38,0,0,1,1.63-.14,3.32,3.32,0,0,1,1.16,1.3,1,1,0,0,1,.1.17,12.37,12.37,0,0,1,1.46,7.77,1.85,1.85,0,0,0,.05,1,1.49,1.49,0,0,0,.7.58,8.44,8.44,0,0,0,5.55.37,4.3,4.3,0,0,1,2.32-.15c1.08.38,1.55,1.62,1.84,2.72a33.22,33.22,0,0,1,1,6.65A6.3,6.3,0,0,1,336.12,216.49Z"/><path class="cls-23" d="M320.94,217l-5.16,5.1-1.61-1.57,4.45-4a30,30,0,0,1,.43-11.64,42.13,42.13,0,0,0,1.3-4.51c.29-2-.09-4,0-6a1.94,1.94,0,0,1,.39-1.29,1.38,1.38,0,0,1,1.63-.14,3.32,3.32,0,0,1,1.16,1.3,1,1,0,0,1,.1.17,2.63,2.63,0,0,0-1.1-.14c-.93.24-.78,1.58-.62,2.52.37,2.27-.54,4.52-1.12,6.73A26.15,26.15,0,0,0,320.94,217Z"/><path class="cls-24" d="M328.08,212.49a13.13,13.13,0,0,1-.59,6.15,10.56,10.56,0,0,0,1.89-5.72,6.27,6.27,0,0,0-2.65-5.24,2.8,2.8,0,0,0-1-.48c.09.74,1.11,1.64,1.46,2.34A10.24,10.24,0,0,1,328.08,212.49Z"/><path class="cls-25" d="M336.37,217.16c-3,1.3-6.93.51-6.93.51a7.58,7.58,0,0,1-.67-2.23,9.24,9.24,0,0,1-.15-1.09,21.74,21.74,0,0,1-.06-2.57c0-.39,0-.78.05-1.16.07-1,.18-2.05.31-3,.06-.41.12-.8.17-1.18.17-1,.35-1.89.48-2.55s.28-1.22.28-1.22c3-.34,7.33,1.55,7.33,1.55a11.49,11.49,0,0,1,.69,3.42A26.72,26.72,0,0,1,336.37,217.16Z"/><path class="cls-24" d="M333.77,207.42s-.41.08-1,.15a18.54,18.54,0,0,1-2.32.15c-.54,0-1.05,0-1.51-.09.06-.41.12-.8.17-1.18a6.34,6.34,0,0,1,1.35-.15,5.9,5.9,0,0,1,2.43.58A5,5,0,0,1,333.77,207.42Z"/><path class="cls-24" d="M333.14,211.4s-.39.11-1,.21a12.61,12.61,0,0,1-2.2.24,12.43,12.43,0,0,1-1.41-.07c0-.39,0-.78.05-1.16a5,5,0,0,1,1.34-.19,5.71,5.71,0,0,1,2.31.48A5,5,0,0,1,333.14,211.4Z"/><path class="cls-24" d="M333.68,215.08a10,10,0,0,1-1,.23,12.52,12.52,0,0,1-2.35.24,12,12,0,0,1-1.54-.11,9.24,9.24,0,0,1-.15-1.09,6.44,6.44,0,0,1,4.11.26A5.84,5.84,0,0,1,333.68,215.08Z"/><path class="cls-23" d="M337.87,207.65a8.06,8.06,0,0,0-2.15-2.05,10,10,0,0,0-2.55-1,19.58,19.58,0,0,0-3.12-.71,2,2,0,0,0-.48,0c.17-.76.28-1.22.28-1.22,3-.34,7.33,1.55,7.33,1.55A11.49,11.49,0,0,1,337.87,207.65Z"/><path class="cls-26" d="M323.36,227.09l-8.7-10.27-1.77-2.09S280,238,276,242.92c0,0-6.46-7.87-12.77-14.29,0,0-8.2-7.85-12.59-11.54L241,227.4l2.66,15.18c11.26,9.49,23.72,19.08,29.59,20.5C285.36,266,326,230.24,326,230.24Z"/><path class="cls-27" d="M243.27,240.31c13.15,10.22,27.88,21,31.23,20.65,5.25-.51,37.8-25.34,48.86-33.87l2.68,3.15S285.36,266,273.26,263.08c-5.87-1.42-18.33-11-29.59-20.5Z"/><path class="cls-28" d="M314.66,216.82l-1.77-2.09S280,238,276,242.92c0,0-12.68-19.66-24.2-27.07l-1.62,1.73a80.25,80.25,0,0,1,13.62,13.2l11.65,14.35c-.32.46-.59.92-.78,1.22a25.09,25.09,0,0,0-2.44,4.89c-.11.31-.18.71.08.89s.69-.08.93-.36l4.16-4.77c.73,1.47,1.6,3.05,3.13,3.64a12,12,0,0,0-1.93-6.06C286.15,238.39,306.87,222.7,314.66,216.82Z"/><path class="cls-29" d="M209.21,443.84s3.71,8.94,6.33,11.13,12.41,6.16,15.07,7.43c1.77.85,1.31,3.28,1.31,3.28H206.37s-4.36-6.77-5.56-5.79a5.87,5.87,0,0,0-1.51,3.25l-9.85-2.7s5.68-17.69,7.53-19S209.21,443.84,209.21,443.84Z"/><path class="cls-29" d="M259.11,447.37s2.12,5.41,4.74,7.6,12.4,6.16,15.06,7.43c1.78.85,1.31,3.28,1.31,3.28H254.68s-4.37-6.77-5.57-5.79-1.87,4.91-1.87,4.91l-8.61,0s1.67-17.69,3.52-19S259.11,447.37,259.11,447.37Z"/><path class="cls-30" d="M186.75,444.35c1.11.54,2.21,1,3.3,1.43,14.89,5.83,26.9,1.85,26.9,1.85l12.23-60.92,9.14-57,.52-3.25.16,3.27,2.4,49.41L237,449.26a24.1,24.1,0,0,0,2.67.94c12.31,3.61,28.17-.94,28.17-.94s-1.79-61.57-1.46-66.15c.21-3-1.79-34.35-3.22-56-.76-11.66-1.37-20.48-1.37-20.48H208l.17,17.88.49,52.67Z"/><path class="cls-31" d="M208,306.66l.17,17.88a118,118,0,0,0,30.11,5.16l.52-3.25.16,3.27a84.29,84.29,0,0,0,24.12-2.58c-.76-11.66-1.37-20.48-1.37-20.48Z"/><path class="cls-31" d="M237,449.26a24.1,24.1,0,0,0,2.67.94l5.17-71.07-5-59.58-1,6.9.16,3.27,2.4,49.41Z"/><path class="cls-31" d="M186.75,444.35c1.11.54,2.21,1,3.3,1.43l21.07-66.65V306.66H208l.17,17.88.49,52.67Z"/><path class="cls-26" d="M216.8,206.12c1.48,1.35,5.06,7.13,9,13.83,1.2,2.06,2.43,4.21,3.63,6.35,5.34,9.42,10.26,18.54,10.26,18.54A57.58,57.58,0,0,0,241,233.5h0c.17-3.53.24-7.35.24-10.84,0-.61,0-1.21,0-1.8a81.32,81.32,0,0,0-.45-10.31c-.57-2-4.66-4.42-4.66-4.42l.38,7.61-5.86-4.8-8.91-7.32Z"/><path class="cls-27" d="M216.8,206.12c1.48,1.35,5.06,7.13,9,13.83l4.77,3.83,6.28-7.81,4.44,6.68c0-.61,0-1.21,0-1.8a81.32,81.32,0,0,0-.45-10.31c-.57-2-4.66-4.42-4.66-4.42l.38,7.61-5.86-4.8-8.91-7.32Z"/><path class="cls-25" d="M221.82,202.92c.33.33,14.71,11,14.71,11s-.33-6.56-.49-10c0-1.06-.08-1.82-.08-2,0-1.37,1.17-7.29,1.17-7.29L222.61,188s-.23,3-.45,6.29C221.89,198.3,221.64,202.74,221.82,202.92Z"/><path class="cls-22" d="M222.16,194.31c4,2.93,12.92,9.34,13.8,9.59l.08,0c0-1.06-.08-1.82-.08-2,0-1.37,1.17-7.29,1.17-7.29L222.61,188S222.38,191,222.16,194.31Z"/><path class="cls-23" d="M223,189.17a10,10,0,0,1-6.95-3.83,7.74,7.74,0,0,1-.69-1c-.94-1.7-1.21-7.6,1.2-9,1.7-1,2.93.44,3.51,1.36h0a5.1,5.1,0,0,1,.38.7Z"/><path class="cls-25" d="M223,189.17a10,10,0,0,1-6.95-3.83c-.11-.17-.21-.33-.29-.48-.94-1.7-1.21-7.6,1.21-9a2.31,2.31,0,0,1,3.1.8h0a5.1,5.1,0,0,1,.38.7Z"/><path class="cls-22" d="M215.77,180a2.6,2.6,0,0,0,.11,1.43c.66,2,2.64,3.49,4.53,4.89a4.94,4.94,0,0,1-.66-3.1,10.27,10.27,0,0,0,.12-1.1C219.89,180.65,216.49,177.23,215.77,180Z"/><path class="cls-24" d="M221.36,186.9l-.11-.06-.3-.18a4.42,4.42,0,0,1-.93-.84,3.83,3.83,0,0,1-.77-1.58,3.24,3.24,0,0,1,.24-2.07,1.26,1.26,0,0,1,.13-.26l0-.07h0v0l0,0-.06-.11-.13-.22c-.18-.29-.38-.57-.57-.82s-.41-.49-.61-.7a6.06,6.06,0,0,0-.6-.56,1.49,1.49,0,0,0-.61-.27,1,1,0,0,0-.52.09.51.51,0,0,0-.24.21.25.25,0,0,0,0,.1.19.19,0,0,1,0-.1.42.42,0,0,1,.19-.27,1,1,0,0,1,.6-.19,1.54,1.54,0,0,1,.81.23,5.07,5.07,0,0,1,.74.53,7.57,7.57,0,0,1,.72.68,7,7,0,0,1,.68.83l.15.23.07.12.1.17.06.12a.39.39,0,0,1-.06.11l-.1.17-.12.23a3.46,3.46,0,0,0-.3,1.84,3.91,3.91,0,0,0,.5,1.5,4.5,4.5,0,0,0,.71.91c.1.1.2.17.25.22Z"/><path class="cls-25" d="M220.63,188.52a6.89,6.89,0,0,0,2,2.49h0c.34.29.72.6,1.17.92,1.7,1.22,17.64,8.06,20.1,7.73s4.77-8.77,4.9-9.66c.79-5.44,3-22.27,3-22.27-6.06-18.34-27.68-8.85-30.13-7S220.63,188.52,220.63,188.52Z"/><path class="cls-23" d="M222.61,191c.34.29.72.6,1.17.92,1.7,1.22,17.64,8.06,20.1,7.73s4.77-8.77,4.9-9.66c-1.53,3.71-3.26,8.84-5,8.67C241.16,198.43,224.55,192,222.61,191Z"/><path class="cls-32" d="M251.74,173.09s-2.94-3.93-4.57-2.37-.9,1.72-.9,1.72Z"/><path class="cls-32" d="M229.63,171s7.56-3.36,8.62-.41c.63,1.72-.56,2.14-.56,2.14Z"/><path class="cls-33" d="M231.65,177.23c0,1.69.86,3.07,1.91,3.07s1.91-1.38,1.91-3.07-.85-3.07-1.91-3.07S231.65,175.53,231.65,177.23Z"/><path class="cls-28" d="M229.83,175.52a3.92,3.92,0,0,0,4.21,1.7,3.92,3.92,0,0,0-4.21-1.7Z"/><path class="cls-33" d="M245.08,178.15c0,1.27.64,2.31,1.44,2.31s1.44-1,1.44-2.31-.65-2.32-1.44-2.32S245.08,176.87,245.08,178.15Z"/><path class="cls-28" d="M243.84,177a3.46,3.46,0,0,0,1.33,1,3.42,3.42,0,0,0,1.67.2,3.54,3.54,0,0,0-1.33-1A3.49,3.49,0,0,0,243.84,177Z"/><path class="cls-22" d="M240.5,184.3a3.55,3.55,0,0,0-1.44-.38,4.84,4.84,0,0,0,2.61,2.52.88.88,0,0,0,.28.06.66.66,0,0,0,.32-.12,5.62,5.62,0,0,0,1.65-1.46,1,1,0,0,0,.21-.4c.12-.48-.22-.37-.5-.26a4.83,4.83,0,0,1-1,.27A4.51,4.51,0,0,1,240.5,184.3Z"/><path class="cls-24" d="M241.77,186.16c.3-.26.63-.49.93-.74a7.23,7.23,0,0,0,1-1c-1.57-1.08-1.55-2.72-1.47-4.58a5.43,5.43,0,0,1,.67-2.39,5.54,5.54,0,0,1,.78-1.07,4.29,4.29,0,0,1,.49-.46,1.78,1.78,0,0,1,.54-.3c-.1.11-.16.24-.25.35a9.3,9.3,0,0,0-.66.89,6.83,6.83,0,0,0-.51,1,6.67,6.67,0,0,0-.47,2.2,5.58,5.58,0,0,0,.35,2.18,4.26,4.26,0,0,0,1.58,2s-1.08,1.25-1.18,1.35a5.55,5.55,0,0,1-.89.71,2,2,0,0,1-1.06.42.67.67,0,0,1-.34-.1l.18-.15.08-.08Z"/><path class="cls-22" d="M236.08,193.76a5.66,5.66,0,0,0,4.71.14,2.43,2.43,0,0,1-2.16,1.16A4,4,0,0,1,236.08,193.76Z"/><path class="cls-23" d="M246.41,185c.25.67,1.7.75,3.24.18s2.58-1.59,2.33-2.26-1.7-.75-3.24-.18S246.16,184.29,246.41,185Z"/><path class="cls-23" d="M227.07,181.83c-.26,1,1.4,2.32,3.72,2.92s4.41.26,4.68-.75-1.41-2.32-3.73-2.92S227.33,180.81,227.07,181.83Z"/><path class="cls-34" d="M244.22,189s-4.39-1.34-11.57.1c0,0,1.79,4.65,6,4.37S244.22,189,244.22,189Z"/><path class="cls-35" d="M216.57,175.35l0,0C216.59,175.43,216.59,175.41,216.57,175.35Z"/><path class="cls-36" d="M256.46,160.23a6.69,6.69,0,0,1-.87,2,10.55,10.55,0,0,1-1.44,1.83,2.86,2.86,0,1,1-3.92,4,1.61,1.61,0,0,1-1.36,1.08,3.85,3.85,0,0,1-1.8-.27,3.67,3.67,0,0,1-2.51-2c-1.07.5-2.34-.15-3.16-1a6.82,6.82,0,0,1-1.89-4.73,6.54,6.54,0,0,1-1.65.55c-1.82.2-3.12-1.66-4.77-2.46-2.5-1.22-5.48.37-7.67,2.07.79,4.92-3.26,10.34-3.26,10.34l-.4,8.58L220,176.69l-3.47-1.34c0-.16-.2-.59-.08-.35-.07-.83-.12-1.66-.17-2.49a3.19,3.19,0,0,1-.42-.3,4.26,4.26,0,0,1-1.44-1.85,3.27,3.27,0,0,1-.05-2c.23-.78.54-.75.11-1.35-.66-.93-1.53-1.21-1.62-2.55a3.24,3.24,0,0,1,1.86-3.08,7.66,7.66,0,0,1-3.31-6.1,6.17,6.17,0,0,1,.4-2.41,5.69,5.69,0,0,1,7-3.21,2.12,2.12,0,0,1,1.28-2.09,4.42,4.42,0,0,1,5.36,1.06,3.44,3.44,0,0,1,1.95-3.47,5.18,5.18,0,0,1,4.14,0,10.9,10.9,0,0,1,3.44,2.4,4.54,4.54,0,0,1,7.24-.24,5.72,5.72,0,0,1,5.44-1.17,9.13,9.13,0,0,1,4.63,3.35,6.25,6.25,0,0,1,1.24,2.38,3.1,3.1,0,0,1-.46,2.57c.39-.21.79.22,1.09.54s.86.7,1.26,1.08A4.58,4.58,0,0,1,256.46,160.23Z"/><path class="cls-32" d="M256.46,160.23a6.69,6.69,0,0,1-.87,2,9.47,9.47,0,0,1-3.09-.94,5,5,0,0,1-2.81-4.71,3.81,3.81,0,0,1-7.22-.36,1.41,1.41,0,0,1-1.63,1.52,1.9,1.9,0,0,1-1.43-1.93,2,2,0,0,1-3-2.23,9.69,9.69,0,0,1-4.22,2,4,4,0,0,1-4.07-1.75,4.15,4.15,0,0,1-6.05,2.29,2.41,2.41,0,1,1-4.09,2.55c-.85,1.14-.43,2.77.22,4s1.5,2.54,1.44,4-1.66,2.83-2.85,2a1.82,1.82,0,0,1,.29,2.48,3.26,3.26,0,0,1-1.21,1,4.26,4.26,0,0,1-1.44-1.85,3.27,3.27,0,0,1-.05-2c.23-.78.54-.75.11-1.35-.66-.93-1.53-1.21-1.62-2.55a3.24,3.24,0,0,1,1.86-3.08,7.66,7.66,0,0,1-3.31-6.1,5.3,5.3,0,0,1,0-.8,5.89,5.89,0,0,1,.37-1.61,5.69,5.69,0,0,1,7-3.21,2.12,2.12,0,0,1,1.28-2.09,4.42,4.42,0,0,1,5.36,1.06,3.44,3.44,0,0,1,1.95-3.47,5.18,5.18,0,0,1,4.14,0,10.9,10.9,0,0,1,3.44,2.4,4.54,4.54,0,0,1,7.24-.24,5.72,5.72,0,0,1,5.44-1.17,9.13,9.13,0,0,1,4.63,3.35,6.25,6.25,0,0,1,1.24,2.38,3.1,3.1,0,0,1-.46,2.57c.39-.21.79.22,1.09.54s.86.7,1.26,1.08a4,4,0,0,1,1.07,2A5.13,5.13,0,0,1,256.46,160.23Z"/><path class="cls-37" d="M256.48,158a7.73,7.73,0,0,0-1.93-1.68,3.48,3.48,0,0,0-3.64-.05,6.27,6.27,0,0,0-7.1-5.23c-1.07.2-2.24.95-2.18,2a6.53,6.53,0,0,0-3.16-2.41c-1.3-.32-3,.57-2.89,1.92a9.38,9.38,0,0,0-4.62-2.77,3.3,3.3,0,0,0-2.36.12,1.46,1.46,0,0,0-.6,2,9.74,9.74,0,0,0-6.06-1.29c-2.07.4-4,2.25-3.78,4.34-2.46-1.27-3.91-.63-6.4-.57a2.62,2.62,0,0,1-.28,0,5.89,5.89,0,0,1,.37-1.61,5.69,5.69,0,0,1,7-3.21,2.12,2.12,0,0,1,1.28-2.09,4.42,4.42,0,0,1,5.36,1.06,3.44,3.44,0,0,1,1.95-3.47,5.18,5.18,0,0,1,4.14,0,10.9,10.9,0,0,1,3.44,2.4,4.54,4.54,0,0,1,7.24-.24,5.72,5.72,0,0,1,5.44-1.17,9.13,9.13,0,0,1,4.63,3.35,6.25,6.25,0,0,1,1.24,2.38,3.1,3.1,0,0,1-.46,2.57c.39-.21.79.22,1.09.54s.86.7,1.26,1.08A4,4,0,0,1,256.48,158Z"/><path class="cls-28" d="M236.13,206.12l.38,7.61,4.73,7.12a81.32,81.32,0,0,0-.45-10.31C240.22,208.57,236.13,206.12,236.13,206.12Z"/><path class="cls-38" d="M234.62,217.82l-2,14.21c5.34,9.42,7,12.81,7,12.81A57.58,57.58,0,0,0,241,233.5h0l-3.38-15.23.77-1.68-1.89-2.85-2.38,2.13Z"/><polygon class="cls-28" points="236.51 213.73 229.77 222.19 216.8 206.12 221.74 201.61 236.51 213.73"/><path class="cls-39" d="M262.26,314.11H203.78S192.37,222.29,211.32,208l.25-.19a8.87,8.87,0,0,1,5.23-1.68s4.94,5.07,12.23,17.66c2.65,4.58,10.62,21.06,10.62,21.06l1.14-34.3h.12a23.19,23.19,0,0,1,10.7,5.14l.48.42a19.49,19.49,0,0,1,3.75,4.74c4.18,7.39,5.71,56.92,6.2,80.65C262.2,309.15,262.26,314.11,262.26,314.11Z"/><path class="cls-40" d="M262.26,314.11H203.78S192.37,222.29,211.32,208a8.9,8.9,0,0,1,1.46,1.78c5.38,8.4,7.59,21.32,5.3,31-1.2,5-3.65,9.65-5,14.63a34.43,34.43,0,0,0,10.35,33.92c6.46,5.67,14.88,8.66,23.33,10.27,5,.95,10.14,1.46,15.25,1.94C262.2,309.15,262.26,314.11,262.26,314.11Z"/><polygon class="cls-29" points="262.42 316.54 247.29 316.2 232.51 315.87 208.66 315.34 208.62 311.2 262.22 311.2 262.42 316.54"/><polygon class="cls-41" points="245.9 311.2 235.86 311.2 235.86 315.95 245.9 316.17 245.9 311.2"/><path class="cls-25" d="M215.7,312.28c-.11.68-8.33,11.54-10.1,11.54s-6-7.74-5.09-8.27a1.45,1.45,0,0,1,.25-.12,11.49,11.49,0,0,1,3.29-.52c.34,0-3.57-2.17-3.67-3.83-.07-1.27,6.11-4.76,9-6.35.9-.49,1.49-.79,1.49-.79S215.82,311.59,215.7,312.28Z"/><path class="cls-23" d="M215.7,312.28c-.11.68-8.33,11.54-10.1,11.54,1.76-1.59,9.37-11.27,9.24-11.8s-3.89-5.31-5.43-7.29c.9-.49,1.49-.79,1.49-.79S215.82,311.59,215.7,312.28Z"/><path class="cls-22" d="M206.13,316.09l-1.24,4s-.86-1.11-2.48-3.3c-.73-1-1.28-1.29-1.65-1.34a11.54,11.54,0,0,1,3.29-.52Z"/><path class="cls-26" d="M214.73,301.77l-2.14,1.71-10.5,8.42-3.22,2.59s-34.67-41.65-31.39-53.66c3.22-11.83,40.76-49.84,41.93-51l0,0h0l1.87,9.47a35.66,35.66,0,0,1-10.55,32.95l-.22.21h0c-6.59,6.14-13,11.7-13,11.7C192.37,268.26,214.73,301.77,214.73,301.77Z"/><path class="cls-28" d="M198.87,314.49l3.22-2.59c-8.23-11.29-32.16-44.5-32.52-49.77-.43-6.26,38.63-50.93,39.84-52.32-1.17,1.18-38.71,39.19-41.93,51C164.2,272.84,198.87,314.49,198.87,314.49Z"/><path class="cls-27" d="M214.73,301.77l-2.14,1.71c-5.66-8-20.78-29.09-26.76-36.81a12.1,12.1,0,0,1-6.11,1.76c.63-1.52,2.24-2.34,3.72-3l-4.65-4.27c-.27-.25-.56-.65-.34-.95s.59-.17.89-.05a23.73,23.73,0,0,1,4.82,2.57c.3.2.76.48,1.2.81L208,242.64a35.53,35.53,0,0,1-7.23,9.56l-.22.21h0c-6.59,6.14-13,11.7-13,11.7C192.37,268.26,214.73,301.77,214.73,301.77Z"/></g></g></svg>