<svg xmlns="http://www.w3.org/2000/svg" xmlns:xlink="http://www.w3.org/1999/xlink" width="500" zoomAndPan="magnify" viewBox="0 0 375 374.999991" height="500" preserveAspectRatio="xMidYMid meet" version="1.0"><defs><g/><clipPath id="50140fb453"><path d="M 169 192 L 211 192 L 211 196.9375 L 169 196.9375 Z M 169 192 " clip-rule="nonzero"/></clipPath><clipPath id="006be79285"><path d="M 177 132.4375 L 204 132.4375 L 204 140 L 177 140 Z M 177 132.4375 " clip-rule="nonzero"/></clipPath><clipPath id="31f161788b"><path d="M 159.339844 159 L 179 159 L 179 169 L 159.339844 169 Z M 159.339844 159 " clip-rule="nonzero"/></clipPath><clipPath id="d9bb691354"><path d="M 202 159 L 221.589844 159 L 221.589844 169 L 202 169 Z M 202 159 " clip-rule="nonzero"/></clipPath><clipPath id="652d298b93"><path d="M 145 71.054688 L 236 71.054688 L 236 122 L 145 122 Z M 145 71.054688 " clip-rule="nonzero"/></clipPath><clipPath id="7219a21718"><path d="M 145 207 L 235 207 L 235 258.554688 L 145 258.554688 Z M 145 207 " clip-rule="nonzero"/></clipPath></defs><g fill="#645030" fill-opacity="1"><g transform="translate(72.823414, 310.340692)"><g><path d="M 3.023438 0 L 19.765625 0 L 19.765625 -5.363281 L 8.746094 -5.363281 L 8.746094 -25.199219 L 3.023438 -25.199219 Z M 3.023438 0 "/></g></g></g><g fill="#645030" fill-opacity="1"><g transform="translate(100.759453, 310.340692)"><g><path d="M 3.023438 0 L 19.980469 0 L 19.980469 -4.859375 L 8.710938 -4.859375 L 8.710938 -10.367188 L 18.613281 -10.367188 L 18.613281 -15.15625 L 8.710938 -15.15625 L 8.710938 -20.375 L 19.585938 -20.375 L 19.585938 -25.199219 L 3.023438 -25.199219 Z M 3.023438 0 "/></g></g></g><g fill="#645030" fill-opacity="1"><g transform="translate(129.775494, 310.340692)"><g><path d="M 14.761719 0.503906 C 23.074219 0.503906 28.441406 -5.652344 27.863281 -14.292969 L 13.644531 -14.292969 L 13.644531 -9.863281 L 21.816406 -9.863281 C 21.097656 -6.804688 18.503906 -4.753906 14.832031 -4.753906 C 10.222656 -4.753906 7.273438 -8.0625 7.273438 -12.601562 C 7.273438 -17.207031 10.332031 -20.449219 14.761719 -20.449219 C 17.566406 -20.449219 19.90625 -19.152344 21.132812 -16.957031 L 27.289062 -16.957031 C 25.777344 -22.246094 20.773438 -25.703125 14.652344 -25.703125 C 6.984375 -25.703125 1.546875 -20.269531 1.546875 -12.601562 C 1.546875 -4.894531 7.019531 0.503906 14.761719 0.503906 Z M 14.761719 0.503906 "/></g></g></g><g fill="#645030" fill-opacity="1"><g transform="translate(166.351547, 310.340692)"><g><path d="M 0.324219 0 L 6.445312 0 L 8.136719 -4.355469 L 18.144531 -4.355469 L 19.835938 0 L 25.957031 0 L 15.949219 -25.199219 L 10.332031 -25.199219 Z M 9.613281 -8.855469 L 13.140625 -18.070312 L 16.703125 -8.855469 Z M 9.613281 -8.855469 "/></g></g></g><g fill="#645030" fill-opacity="1"><g transform="translate(199.831596, 310.340692)"><g><path d="M 3.023438 0 L 19.765625 0 L 19.765625 -5.363281 L 8.746094 -5.363281 L 8.746094 -25.199219 L 3.023438 -25.199219 Z M 3.023438 0 "/></g></g></g><g fill="#645030" fill-opacity="1"><g transform="translate(227.767641, 310.340692)"><g><path d="M 3.023438 0 L 8.746094 0 L 8.746094 -25.199219 L 3.023438 -25.199219 Z M 3.023438 0 "/></g></g></g><g fill="#645030" fill-opacity="1"><g transform="translate(246.739666, 310.340692)"><g><path d="M 3.023438 0 L 8.710938 0 L 8.710938 -15.445312 L 19.835938 0 L 24.695312 0 L 24.695312 -25.199219 L 19.007812 -25.199219 L 19.007812 -9.863281 L 7.882812 -25.199219 L 3.023438 -25.199219 Z M 3.023438 0 "/></g></g></g><g fill="#645030" fill-opacity="1"><g transform="translate(281.65972, 310.340692)"><g><path d="M 3.023438 0 L 8.746094 0 L 8.746094 -10.1875 L 11.773438 -10.1875 C 12.238281 -10.1875 12.636719 -10.1875 13.066406 -10.222656 L 18.46875 0 L 25.128906 0 L 18.324219 -12.347656 C 19.332031 -13.320312 20.089844 -14.578125 20.734375 -16.234375 L 24.226562 -25.199219 L 18.035156 -25.199219 L 15.660156 -18.648438 C 14.796875 -16.273438 13.753906 -15.515625 10.90625 -15.515625 L 8.746094 -15.515625 L 8.746094 -25.199219 L 3.023438 -25.199219 Z M 3.023438 0 "/></g></g></g><path fill="#645030" d="M 166.882812 143.292969 L 188.011719 143.292969 L 188.011719 189.273438 L 174.941406 189.273438 L 174.941406 184.972656 L 183.695312 184.972656 L 183.695312 147.589844 L 171.203125 147.589844 L 171.203125 156.644531 L 166.882812 156.644531 Z M 166.882812 143.292969 " fill-opacity="1" fill-rule="evenodd"/><path fill="#645030" d="M 214.046875 143.292969 L 192.914062 143.292969 L 192.914062 189.273438 L 205.992188 189.273438 L 205.992188 184.972656 L 197.238281 184.972656 L 197.238281 147.589844 L 209.730469 147.589844 L 209.730469 156.644531 L 214.046875 156.644531 Z M 214.046875 143.292969 " fill-opacity="1" fill-rule="evenodd"/><g clip-path="url(#50140fb453)"><path fill="#645030" d="M 169.980469 192.636719 L 210.949219 192.636719 L 210.949219 196.9375 L 169.980469 196.9375 Z M 169.980469 192.636719 " fill-opacity="1" fill-rule="evenodd"/></g><g clip-path="url(#006be79285)"><path fill="#645030" d="M 203.714844 132.492188 L 203.714844 139.984375 L 199.398438 139.984375 L 199.398438 136.789062 L 181.539062 136.789062 L 181.539062 139.984375 L 177.214844 139.984375 L 177.214844 132.4375 L 181.539062 132.4375 L 181.539062 132.492188 L 199.398438 132.492188 L 199.398438 132.4375 L 203.714844 132.4375 Z M 203.714844 132.492188 " fill-opacity="1" fill-rule="evenodd"/></g><g clip-path="url(#31f161788b)"><path fill="#645030" d="M 178.730469 159.316406 C 178.730469 164.636719 174.394531 168.953125 169.039062 168.953125 C 163.691406 168.953125 159.351562 164.636719 159.351562 159.316406 Z M 178.730469 159.316406 " fill-opacity="1" fill-rule="evenodd"/></g><g clip-path="url(#d9bb691354)"><path fill="#645030" d="M 202.199219 159.316406 C 202.199219 164.636719 206.535156 168.953125 211.890625 168.953125 C 217.238281 168.953125 221.578125 164.636719 221.578125 159.316406 Z M 202.199219 159.316406 " fill-opacity="1" fill-rule="evenodd"/></g><path fill="#645030" d="M 259.273438 143.996094 C 251.417969 148.539062 241.371094 145.84375 236.835938 137.972656 C 232.300781 130.101562 234.992188 120.035156 242.847656 115.492188 C 250.703125 110.945312 260.746094 113.644531 265.28125 121.515625 C 269.816406 129.386719 267.125 139.453125 259.273438 143.996094 " fill-opacity="1" fill-rule="nonzero"/><path fill="#c8aa7c" d="M 172.199219 219.257812 C 170.304688 215.964844 166.042969 214.886719 162.847656 216.9375 C 162.265625 217.3125 161.671875 217.675781 161.066406 218.023438 C 143.078125 228.429688 121.441406 224.613281 112.734375 209.503906 C 106.554688 198.777344 108.550781 185.246094 116.660156 174.570312 C 114.480469 172.1875 112.503906 169.660156 110.75 167.023438 C 102.542969 181.339844 101.355469 197.996094 109.171875 211.5625 C 120.121094 230.566406 145.144531 237.277344 168.621094 228.9375 C 172.570312 227.535156 174.296875 222.894531 172.199219 219.257812 Z M 129.722656 163.1875 C 130.265625 162.878906 130.8125 162.578125 131.363281 162.292969 C 134.734375 160.546875 135.933594 156.308594 134.035156 153.015625 C 131.941406 149.378906 127.066406 148.558594 123.878906 151.285156 C 122.535156 152.433594 121.257812 153.628906 120.039062 154.859375 C 122.734375 158.050781 126 160.871094 129.722656 163.1875 Z M 115.144531 208.105469 C 119.679688 215.976562 129.722656 218.675781 137.578125 214.132812 C 145.433594 209.585938 148.125 199.523438 143.589844 191.648438 C 139.054688 183.777344 129.011719 181.082031 121.15625 185.625 C 113.300781 190.171875 110.609375 200.234375 115.144531 208.105469 " fill-opacity="1" fill-rule="nonzero"/><path fill="#645030" d="M 137.695312 115.289062 C 129.839844 110.742188 119.796875 113.441406 115.261719 121.3125 C 110.726562 129.183594 113.417969 139.246094 121.273438 143.792969 C 129.128906 148.335938 139.171875 145.640625 143.707031 137.769531 C 148.242188 129.898438 145.550781 119.832031 137.695312 115.289062 Z M 168.738281 100.480469 C 167.074219 99.890625 165.40625 99.378906 163.734375 98.9375 C 162.34375 102.816406 161.515625 107.054688 161.367188 111.503906 C 161.910156 111.820312 162.441406 112.144531 162.964844 112.480469 C 166.160156 114.53125 170.421875 113.453125 172.320312 110.160156 C 174.414062 106.523438 172.6875 101.882812 168.738281 100.480469 Z M 109.289062 117.855469 C 98.339844 136.863281 105.050781 161.929688 123.996094 178.136719 C 127.183594 180.859375 132.058594 180.039062 134.152344 176.402344 C 136.050781 173.109375 134.851562 168.871094 131.480469 167.125 C 130.867188 166.804688 130.257812 166.472656 129.652344 166.121094 C 111.664062 155.714844 104.144531 135.03125 112.851562 119.917969 C 119.03125 109.191406 131.722656 104.160156 145 105.859375 C 145.972656 102.773438 147.167969 99.796875 148.566406 96.957031 C 132.089844 96.992188 117.105469 104.289062 109.289062 117.855469 " fill-opacity="1" fill-rule="nonzero"/><g clip-path="url(#652d298b93)"><path fill="#c8aa7c" d="M 235.070312 114.007812 C 234.75 112.269531 234.355469 110.5625 233.902344 108.894531 C 229.777344 109.636719 225.703125 111.0625 221.859375 113.125 C 221.855469 113.753906 221.84375 114.378906 221.8125 114.996094 C 221.640625 118.796875 224.699219 121.957031 228.492188 121.957031 C 232.6875 121.957031 235.832031 118.140625 235.070312 114.007812 Z M 190.332031 78.015625 C 181.261719 78.015625 173.90625 85.386719 173.90625 94.472656 C 173.90625 103.5625 181.261719 110.929688 190.332031 110.929688 C 199.398438 110.929688 206.753906 103.5625 206.753906 94.472656 C 206.753906 85.386719 199.398438 78.015625 190.332031 78.015625 Z M 190.332031 71.105469 C 168.429688 71.105469 150.121094 89.464844 145.589844 114.007812 C 144.828125 118.140625 147.972656 121.957031 152.164062 121.957031 C 155.960938 121.957031 159.019531 118.796875 158.847656 114.996094 C 158.816406 114.308594 158.800781 113.609375 158.800781 112.910156 C 158.800781 92.097656 172.917969 75.226562 190.332031 75.226562 C 202.6875 75.226562 213.378906 83.722656 218.550781 96.089844 C 221.695312 95.390625 224.859375 94.933594 228.023438 94.730469 C 219.753906 80.457031 205.957031 71.105469 190.332031 71.105469 " fill-opacity="1" fill-rule="nonzero"/></g><path fill="#645030" d="M 250.707031 166.429688 C 250.164062 166.742188 249.617188 167.042969 249.0625 167.328125 C 245.695312 169.078125 244.492188 173.3125 246.390625 176.605469 C 248.488281 180.242188 253.359375 181.066406 256.546875 178.335938 C 257.886719 177.191406 259.164062 176 260.382812 174.769531 C 257.726562 171.621094 254.480469 168.78125 250.707031 166.429688 Z M 271.257812 118.058594 C 260.308594 99.054688 235.285156 92.34375 211.808594 100.683594 C 207.859375 102.085938 206.128906 106.726562 208.226562 110.363281 C 210.125 113.65625 214.386719 114.734375 217.582031 112.683594 C 218.164062 112.308594 218.757812 111.945312 219.363281 111.59375 C 237.347656 101.191406 258.988281 105.007812 267.695312 120.117188 C 273.875 130.84375 271.878906 144.378906 263.769531 155.050781 C 265.949219 157.433594 267.925781 159.960938 269.679688 162.597656 C 277.886719 148.28125 279.070312 131.625 271.257812 118.058594 " fill-opacity="1" fill-rule="nonzero"/><path fill="#c8aa7c" d="M 208.109375 219.460938 C 206.011719 223.097656 207.738281 227.738281 211.6875 229.140625 C 213.351562 229.730469 215.019531 230.242188 216.691406 230.683594 C 218.082031 226.804688 218.914062 222.566406 219.058594 218.117188 C 218.515625 217.800781 217.984375 217.476562 217.460938 217.144531 C 214.265625 215.089844 210.007812 216.167969 208.109375 219.460938 Z M 256.429688 151.488281 C 253.242188 148.761719 248.371094 149.582031 246.273438 153.21875 C 244.375 156.511719 245.578125 160.75 248.949219 162.496094 C 249.558594 162.816406 250.167969 163.148438 250.773438 163.5 C 268.761719 173.90625 276.285156 194.59375 267.578125 209.703125 C 261.398438 220.429688 248.703125 225.464844 235.425781 223.765625 C 234.453125 226.847656 233.261719 229.828125 231.859375 232.664062 C 248.335938 232.628906 263.320312 225.332031 271.136719 211.765625 C 282.089844 192.761719 275.375 167.691406 256.429688 151.488281 Z M 242.730469 214.332031 C 250.585938 218.878906 260.628906 216.179688 265.164062 208.308594 C 269.699219 200.4375 267.007812 190.375 259.152344 185.828125 C 251.296875 181.285156 241.253906 183.980469 236.71875 191.851562 C 232.1875 199.722656 234.875 209.789062 242.730469 214.332031 " fill-opacity="1" fill-rule="nonzero"/><g clip-path="url(#7219a21718)"><path fill="#645030" d="M 228.261719 207.664062 C 224.464844 207.664062 221.40625 210.828125 221.578125 214.625 C 221.613281 215.316406 221.628906 216.011719 221.628906 216.714844 C 221.628906 237.527344 207.507812 254.398438 190.097656 254.398438 C 177.738281 254.398438 167.046875 245.902344 161.878906 233.53125 C 158.734375 234.234375 155.570312 234.6875 152.40625 234.890625 C 160.675781 249.164062 174.46875 258.515625 190.097656 258.515625 C 211.996094 258.515625 230.304688 240.15625 234.835938 215.613281 C 235.601562 211.484375 232.453125 207.664062 228.261719 207.664062 Z M 190.097656 251.605469 C 199.164062 251.605469 206.519531 244.238281 206.519531 235.148438 C 206.519531 226.058594 199.164062 218.691406 190.097656 218.691406 C 181.027344 218.691406 173.671875 226.058594 173.671875 235.148438 C 173.671875 244.238281 181.027344 251.605469 190.097656 251.605469 Z M 158.613281 214.625 C 158.785156 210.828125 155.726562 207.664062 151.929688 207.664062 C 147.738281 207.664062 144.59375 211.484375 145.355469 215.613281 C 145.675781 217.355469 146.074219 219.058594 146.53125 220.730469 C 150.65625 219.984375 154.722656 218.558594 158.566406 216.496094 C 158.570312 215.871094 158.582031 215.242188 158.613281 214.625 " fill-opacity="1" fill-rule="nonzero"/></g></svg>