<svg xmlns="http://www.w3.org/2000/svg" xmlns:xlink="http://www.w3.org/1999/xlink" viewBox="0 0 447.07 125"><defs><style>.cls-1{fill:none;}.cls-2{fill:#645030;}.cls-3{clip-path:url(#clip-path);}.cls-4{clip-path:url(#clip-path-2);}.cls-5{clip-path:url(#clip-path-3);}.cls-6{clip-path:url(#clip-path-4);}.cls-7{fill:#c8aa7c;}.cls-8{clip-path:url(#clip-path-5);}.cls-9{clip-path:url(#clip-path-6);}</style><clipPath id="clip-path"><rect class="cls-1" x="43.31" y="80.6" width="28" height="3.3"/></clipPath><clipPath id="clip-path-2"><rect class="cls-1" x="48.71" y="40.9" width="18" height="5"/></clipPath><clipPath id="clip-path-3"><rect class="cls-1" x="36.91" y="58.6" width="13.1" height="6.7"/></clipPath><clipPath id="clip-path-4"><rect class="cls-1" x="65.31" y="58.6" width="13.1" height="6.7"/></clipPath><clipPath id="clip-path-5"><rect class="cls-1" x="27.31" width="60.7" height="34"/></clipPath><clipPath id="clip-path-6"><rect class="cls-1" x="27.31" y="90.6" width="60" height="34.4"/></clipPath></defs><title>Asset 1</title><g id="Layer_2" data-name="Layer 2"><g id="Layer_1-2" data-name="Layer 1"><path class="cls-2" d="M139.23,82.14h22.3v-7.2h-14.7V48.54h-7.6Z"/><path class="cls-2" d="M176.46,82.14h22.6v-6.5h-15v-7.3h13.2v-6.4h-13.2v-7h14.5v-6.4h-22.1Z"/><path class="cls-2" d="M230.78,82.74c11.1,0,18.2-8.2,17.5-19.7h-19v5.9h10.9c-1,4.1-4.4,6.8-9.3,6.8-6.1,0-10.1-4.4-10.1-10.5s4.1-10.5,10-10.5a9.31,9.31,0,0,1,8.5,4.7h8.2c-2-7.1-8.7-11.7-16.8-11.7-10.2,0-17.5,7.2-17.5,17.5S220.48,82.74,230.78,82.74Z"/><path class="cls-2" d="M260.36,82.14h8.2l2.3-5.8h13.3l2.3,5.8h8.2l-13.3-33.6h-7.5Zm12.4-11.9,4.7-12.3,4.8,12.3Z"/><path class="cls-2" d="M308.54,82.14h22.3v-7.2h-14.7V48.54h-7.6Z"/><path class="cls-2" d="M345.87,82.14h7.6V48.54h-7.6Z"/><path class="cls-2" d="M371.15,82.14h7.6V61.54l14.8,20.6h6.5V48.54h-7.6v20.4l-14.8-20.4h-6.5Z"/><path class="cls-2" d="M417.67,82.14h7.6V68.54H431l7.2,13.6h8.9L438,65.64a14,14,0,0,0,3.2-5.2l4.7-12h-8.3l-3.2,8.7c-1.2,3.2-2.5,4.2-6.3,4.2h-2.9V48.44h-7.6v33.7Z"/><path class="cls-2" d="M41.91,48.2H56V78.9h-8.7V76h5.8V51.1h-8.3v6h-2.9Z"/><path class="cls-2" d="M73.31,48.2h-14V78.9H68V76h-5.8V51.1h8.3v6h2.9V48.2Z"/><g class="cls-3"><path class="cls-2" d="M44,81.1h27.3V84H44Z"/></g><g class="cls-4"><path class="cls-2" d="M66.51,41v5h-2.9V43.9H51.71V46h-2.9V41h17.7Z"/></g><g class="cls-5"><path class="cls-2" d="M49.81,58.8a6.5,6.5,0,0,1-13,0Z"/></g><g class="cls-6"><path class="cls-2" d="M65.51,58.8a6.5,6.5,0,0,0,13,0Z"/></g><path class="cls-2" d="M103.51,48.6a11,11,0,1,1,4-15,11.08,11.08,0,0,1-4,15"/><path class="cls-7" d="M45.51,98.8a4.37,4.37,0,0,0-6.2-1.5,7.46,7.46,0,0,1-1.2.7c-12,6.9-26.4,4.4-32.2-5.7-4.1-7.2-2.8-16.2,2.6-23.3a35.62,35.62,0,0,1-3.9-5c-5.5,9.5-6.3,20.6-1.1,29.7,7.3,12.7,24,17.1,39.6,11.6A4.64,4.64,0,0,0,45.51,98.8ZM17.11,61.4c.4-.2.7-.4,1.1-.6A4.58,4.58,0,0,0,20,54.6a4.52,4.52,0,0,0-6.8-1.2c-.9.8-1.7,1.6-2.6,2.4A28.8,28.8,0,0,0,17.11,61.4Zm-9.7,30a11,11,0,1,0,4-15,11,11,0,0,0-4,15"/><path class="cls-2" d="M22.41,29.5a11.08,11.08,0,0,0-15,4,11,11,0,0,0,4,15,11.08,11.08,0,0,0,15-4A10.86,10.86,0,0,0,22.41,29.5Zm20.7-9.9c-1.1-.4-2.2-.7-3.3-1a28.47,28.47,0,0,0-1.6,8.4,6.73,6.73,0,0,1,1.1.7,4.43,4.43,0,0,0,6.2-1.5A4.56,4.56,0,0,0,43.11,19.6ZM3.51,31.2c-7.3,12.7-2.8,29.4,9.8,40.2a4.47,4.47,0,0,0,6.8-1.2,4.42,4.42,0,0,0-1.8-6.2,7.46,7.46,0,0,1-1.2-.7c-12-6.9-17-20.7-11.2-30.8,4.1-7.2,12.6-10.5,21.4-9.4a30.41,30.41,0,0,1,2.4-5.9c-11,.1-21,5-26.2,14"/><g class="cls-8"><path class="cls-7" d="M87.41,28.6a33.83,33.83,0,0,0-.8-3.4,25.42,25.42,0,0,0-8,2.8v1.2a4.44,4.44,0,0,0,4.5,4.6A4.33,4.33,0,0,0,87.41,28.6Zm-29.9-24a11,11,0,1,0,10.9,11A10.88,10.88,0,0,0,57.51,4.6Zm0-4.6c-14.6,0-26.8,12.2-29.8,28.6a4.49,4.49,0,1,0,8.9.7V27.9c0-13.9,9.4-25.1,21-25.1,8.2,0,15.4,5.7,18.8,13.9a34.17,34.17,0,0,1,6.3-.9C77.21,6.3,68,0,57.51,0"/></g><path class="cls-2" d="M97.81,63.6c-.4.2-.7.4-1.1.6a4.58,4.58,0,0,0-1.8,6.2,4.52,4.52,0,0,0,6.8,1.2c.9-.8,1.7-1.6,2.6-2.4A27.09,27.09,0,0,0,97.81,63.6Zm13.7-32.3c-7.3-12.7-24-17.1-39.6-11.6a4.52,4.52,0,0,0-2.4,6.5,4.37,4.37,0,0,0,6.2,1.5,7.46,7.46,0,0,1,1.2-.7c12-6.9,26.4-4.4,32.2,5.7,4.1,7.2,2.8,16.2-2.6,23.3a35.62,35.62,0,0,1,3.9,5c5.5-9.5,6.3-20.6,1.1-29.7"/><path class="cls-7" d="M69.41,98.9a4.57,4.57,0,0,0,2.4,6.5c1.1.4,2.2.7,3.3,1a28.47,28.47,0,0,0,1.6-8.4c-.4-.2-.7-.4-1.1-.6A4.37,4.37,0,0,0,69.41,98.9Zm32.2-45.3a4.47,4.47,0,0,0-6.8,1.2,4.42,4.42,0,0,0,1.8,6.2,7.46,7.46,0,0,1,1.2.7c12,6.9,17,20.7,11.2,30.8-4.1,7.2-12.6,10.5-21.4,9.4a30.41,30.41,0,0,1-2.4,5.9c11,0,21-4.9,26.2-13.9C118.71,81.1,114.21,64.4,101.61,53.6Zm-9.1,41.9a11,11,0,1,0-4-15,10.86,10.86,0,0,0,4,15"/><g class="cls-9"><path class="cls-2" d="M82.81,91.1a4.5,4.5,0,0,0-4.5,4.6v1.4c0,13.9-9.4,25.1-21,25.1-8.2,0-15.4-5.7-18.8-13.9a34.17,34.17,0,0,1-6.3.9c5.5,9.5,14.7,15.8,25.1,15.8,14.6,0,26.8-12.2,29.8-28.6A4.35,4.35,0,0,0,82.81,91.1Zm-25.4,29.3a11,11,0,1,0-11-11A10.95,10.95,0,0,0,57.41,120.4Zm-21-24.7a4.49,4.49,0,1,0-8.9.7,33.83,33.83,0,0,0,.8,3.4,25.42,25.42,0,0,0,8-2.8,6.15,6.15,0,0,0,.1-1.3"/></g></g></g></svg>