<?xml version="1.0" encoding="utf-8"?>
<!-- Generator: Adobe Illustrator 22.1.0, SVG Export Plug-In . SVG Version: 6.00 Build 0)  -->
<svg version="1.1" xmlns="http://www.w3.org/2000/svg" xmlns:xlink="http://www.w3.org/1999/xlink" x="0px" y="0px"
	 viewBox="0 0 500 500" style="enable-background:new 0 0 500 500;" xml:space="preserve">
<style type="text/css">
	.st0{fill:#EBEBEB;}
	.st1{fill:#F5F5F5;}
	.st2{fill:#E6E6E6;}
	.st3{fill:#FAFAFA;}
	.st4{fill:#E0E0E0;}
	.st5{fill:#F0F0F0;}
	.st6{opacity:0.2;}
	.st7{fill:#263238;}
	.st8{fill:#407BFF;}
	.st9{opacity:0.6;enable-background:new    ;}
	.st10{fill:#FFFFFF;}
	.st11{opacity:0.3;}
	.st12{opacity:0.7;fill:#FFFFFF;}
	.st13{fill:#E8BFBF;}
	.st14{opacity:0.3;fill:#FFFFFF;}
	.st15{opacity:0.2;enable-background:new    ;}
	.st16{fill:#ED847E;}
	.st17{opacity:0.1;fill:#FFFFFF;}
	.st18{opacity:0.1;fill:#407BFF;}
	.st19{opacity:0.1;}
	.st20{fill:none;stroke:#407BFF;stroke-width:1.3;stroke-miterlimit:10;}
</style>
<g id="Background_Complete">
	<rect x="416.8" y="398.5" class="st0" width="33.1" height="0.3"/>
	<rect x="322.5" y="401.2" class="st0" width="8.7" height="0.3"/>
	<rect x="396.6" y="389.2" class="st0" width="19.2" height="0.3"/>
	<rect x="52.5" y="390.9" class="st0" width="43.2" height="0.3"/>
	<rect x="104.6" y="390.9" class="st0" width="6.3" height="0.3"/>
	<rect x="131.5" y="395.1" class="st0" width="93.7" height="0.3"/>
	<g>
		<path class="st0" d="M238.4,337.8H45.3c-3.1,0-5.7-2.6-5.7-5.7V60.7c0-3.1,2.6-5.7,5.7-5.7h193.1c3.1,0,5.7,2.6,5.7,5.7v271.4
			C244.1,335.2,241.5,337.8,238.4,337.8z M45.3,55.2c-3,0-5.5,2.4-5.5,5.5v271.4c0,3,2.4,5.5,5.5,5.5h193.1c3,0,5.5-2.4,5.5-5.5
			V60.7c0-3-2.4-5.5-5.5-5.5H45.3z"/>
		<path class="st0" d="M454.7,337.8H261.6c-3.1,0-5.7-2.6-5.7-5.7V60.7c0-3.1,2.6-5.7,5.7-5.7h193.1c3.1,0,5.7,2.6,5.7,5.7v271.4
			C460.4,335.2,457.8,337.8,454.7,337.8z M261.6,55.2c-3,0-5.5,2.4-5.5,5.5v271.4c0,3,2.4,5.5,5.5,5.5h193.1c3,0,5.5-2.4,5.5-5.5
			V60.7c0-3-2.4-5.5-5.5-5.5H261.6z"/>
	</g>
	<rect y="382.4" class="st0" width="500" height="0.3"/>
	<g>
		<g>
			<g>
				<g>
					<g>
						
							<rect x="350.1" y="249.9" transform="matrix(-1 -1.224647e-16 1.224647e-16 -1 795.3231 626.5402)" class="st1" width="95.2" height="126.6"/>
						
							<rect x="331.9" y="249.9" transform="matrix(-1 -1.224647e-16 1.224647e-16 -1 681.9898 626.5402)" class="st2" width="18.2" height="126.6"/>
						
							<rect x="356.3" y="259.3" transform="matrix(-1 -1.224647e-16 1.224647e-16 -1 794.8336 549.4448)" class="st3" width="82.3" height="30.8"/>
						<path class="st0" d="M408.2,259.3l-0.4,4.1c-0.1,1.4-1.3,2.4-2.6,2.4h-15.5c-1.4,0-2.5-1-2.6-2.4l-0.4-4.1H408.2z"/>
						
							<rect x="356.3" y="293.5" transform="matrix(-1 -1.224647e-16 1.224647e-16 -1 794.8336 617.674)" class="st3" width="82.3" height="30.8"/>
						<path class="st0" d="M408.2,293.5l-0.4,4.1c-0.1,1.4-1.3,2.4-2.6,2.4h-15.5c-1.4,0-2.5-1-2.6-2.4l-0.4-4.1H408.2z"/>
						
							<rect x="356.3" y="327.6" transform="matrix(-1 -1.224647e-16 1.224647e-16 -1 794.8336 685.9032)" class="st3" width="82.3" height="30.8"/>
						<path class="st0" d="M408.2,327.6l-0.4,4.1c-0.1,1.4-1.3,2.4-2.6,2.4h-15.5c-1.4,0-2.5-1-2.6-2.4l-0.4-4.1H408.2z"/>
						<polygon class="st2" points="356.3,382.9 437.6,382.9 438.6,376.6 356.3,376.6 						"/>
						<polygon class="st4" points="339.3,382.9 356.3,382.9 356.3,376.6 338.3,376.6 						"/>
					</g>
					<g>
						<polygon class="st3" points="394.5,250.1 427,250.1 423.4,208.9 390.9,208.9 						"/>
						<polygon class="st0" points="394.5,250.1 392.9,250.1 389.3,208.9 390.9,208.9 						"/>
						<polygon class="st5" points="397.4,245.9 423.3,245.9 420.4,213.1 394.6,213.1 						"/>
						<polygon class="st2" points="399.3,243.2 420.9,243.2 418.5,215.8 396.9,215.8 						"/>
					</g>
					<g>
						<polygon class="st5" points="385.3,250.1 387.6,224.6 355.2,224.6 353,250.1 						"/>
						<polygon class="st4" points="385.3,250.1 387.6,224.6 389.3,224.6 387.1,250.1 						"/>
						<polygon class="st0" points="382.3,247.5 384.1,227.2 358.3,227.2 356.5,247.5 						"/>
						<polygon class="st1" points="380.3,245.8 381.8,228.8 360.3,228.8 358.8,245.8 						"/>
					</g>
				</g>
			</g>
			<g>
				<path class="st0" d="M310.6,365.8c0,6.8-1.1,11.1-2.8,13.9c-1.3,2.1-3.8,3.3-6.3,3.3h-9.8c-2.5,0-4.9-1.2-6.3-3.3
					c-1.8-2.8-2.8-7.2-2.8-13.9c0-9.8,4.3-17.7,5.7-23.9c0.5-2.3-1.2-9.2-1.2-9.2h19c0,0-1.7,6.9-1.2,9.2
					C306.4,348.1,310.6,356,310.6,365.8z"/>
				<path class="st1" d="M343,326.1c0-8.5-13.3-5-16.7-18.2c-1.3-5,9.6-16.3,9.6-16.3H302c0,0,10.9,11.3,9.6,16.3
					c-3.4,13.2-16.7,9.7-16.7,18.2c0,9.4,18.8,28.9,19.7,50.9c0.1,2-3.5,6-3.5,6h15.7c0,0-3.6-4.1-3.5-6
					C324.2,355,343,335.5,343,326.1z"/>
				<path class="st5" d="M332.8,348.2c2-4.1-2.1-18.2-2.1-18.2h14.7c0,0-4.1,14.1-2.1,18.2c1.4,2.9,4.5,4.8,4.5,8.2v20.8
					c0,5.4-4.4,5.8-9.8,5.8s-9.8-0.4-9.8-5.8v-20.8C328.2,353,331.4,351.1,332.8,348.2z"/>
			</g>
			<g>
				<g>
					<path class="st2" d="M165.2,225.5c-8.4-3.6-13.2-11.3-10.7-17.2c2.5-5.8,11.4-7.6,19.9-3.9c8.4,3.6,13.2,11.3,10.7,17.2
						C182.5,227.4,173.6,229.2,165.2,225.5z M171.9,210c-3.9-1.7-8.1-0.9-9.3,1.8c-1.2,2.7,1.1,6.3,5,8c3.9,1.7,8.1,0.9,9.3-1.8
						C178.1,215.4,175.8,211.7,171.9,210z"/>
				</g>
				<g>
					<g>
						<path class="st2" d="M175.1,210.4l-4-1.7l24.2-55.9c0.5-1.1,1.8-1.6,2.9-1.1l0,0c1.1,0.5,1.6,1.8,1.1,2.9L175.1,210.4z"/>
					</g>
					<g>
						<g>
							<polygon class="st2" points="201.1,159.8 193.4,156.5 195.2,152.5 202.9,155.8 							"/>
						</g>
						<g>
							<polygon class="st2" points="197.3,164.3 191.8,161.9 193.6,157.9 199.1,160.3 							"/>
						</g>
						<g>
							
								<rect x="191.4" y="165.5" transform="matrix(0.3974 -0.9177 0.9177 0.3974 -38.3573 279.3987)" class="st2" width="4.4" height="6.7"/>
						</g>
						<g>
							<path class="st2" d="M176.6,204.4l-2.2-1c-1.1-0.5-1.6-1.7-1.1-2.8l0,0c0.5-1.1,1.7-1.6,2.8-1.1l2.2,1
								c1.1,0.5,1.6,1.7,1.1,2.8l0,0C179,204.4,177.7,204.9,176.6,204.4z"/>
						</g>
					</g>
				</g>
			</g>
			<g>
				<g>
					<path class="st2" d="M348.5,185.2c6.7,4.4,8.4,13.6,3.8,20.5c-4.6,6.8-13.7,8.8-20.4,4.3c-6.7-4.4-8.4-13.6-3.8-20.5
						C332.7,182.7,341.8,180.7,348.5,185.2z M336.3,203.4c3.1,2.1,7.4,1.2,9.5-2c2.1-3.2,1.3-7.5-1.8-9.6c-3.1-2.1-7.4-1.2-9.5,2
						C332.4,197,333.2,201.3,336.3,203.4z"/>
				</g>
				<g>
					<g>
						<path class="st2" d="M334.7,201.6l4.1,2.8l-29.6,45.3c-0.8,1.1-2.3,1.5-3.4,0.7h0c-1.1-0.8-1.5-2.3-0.7-3.4L334.7,201.6z"/>
					</g>
					<g>
						<g>
							<path class="st2" d="M305.3,237.1l8.7,5.8l-4.3,6.5l-8.7-5.9c-1.3-0.8-1.6-2.5-0.8-3.8l1.3-2
								C302.3,236.5,304,236.2,305.3,237.1z"/>
						</g>
					</g>
				</g>
			</g>
			<g>
				<g>
					<g>
						<g>
							<path class="st5" d="M227.5,98.6l-4.6,11.9c-0.4,1.1-1.6,1.6-2.7,1.2c-1.1-0.4-1.6-1.6-1.2-2.7l4.6-11.9
								c1.5-3.8-0.4-8.2-4.3-9.7l-4.3-1.6c-3.8-1.5-8.2,0.4-9.7,4.3l-1.9,4.9l-3.9-1.5l1.9-4.9c2.3-6,9.1-9,15.1-6.7l4.3,1.6
								C226.9,85.8,229.8,92.6,227.5,98.6z"/>
						</g>
						<g>
							<g>
								<path class="st2" d="M226.8,100.4c-0.3-0.4-0.7-0.7-1.2-0.9l-23.2-9c-0.5-0.2-1.1-0.2-1.6-0.1c-0.9,0.2-1.7,0.8-2.1,1.8
									l-9,23.2c-0.6,1.5,0.2,3.1,1.6,3.7l23.2,9c1.5,0.6,3.1-0.2,3.7-1.6l9-23.2C227.6,102.2,227.4,101.2,226.8,100.4z
									 M209.2,118.4l-7.4-2.8l3.9-6.8c-0.5-1-0.6-2.2-0.2-3.3c0.8-2.1,3.2-3.2,5.3-2.3c2.1,0.8,3.2,3.2,2.3,5.3
									c-0.4,1.1-1.3,1.9-2.3,2.3L209.2,118.4z"/>
							</g>
						</g>
					</g>
				</g>
			</g>
		</g>
		<g>
			
				<rect x="69.2" y="269.8" transform="matrix(-1 -1.224647e-16 1.224647e-16 -1 323.4438 639.2804)" class="st2" width="185.1" height="99.6"/>
			
				<rect x="239.4" y="373.6" transform="matrix(-1 -1.224647e-16 1.224647e-16 -1 490.5247 755.9769)" class="st2" width="11.6" height="8.8"/>
			
				<rect x="55" y="262.4" transform="matrix(-1 -1.224647e-16 1.224647e-16 -1 121.6854 644.7964)" class="st2" width="11.6" height="120"/>
			<path class="st5" d="M66.5,262.4v120h6.2v-6.7h178.4v6.7h6.2v-120h-3.1h-3.1H72.7h-3.1H66.5z M72.7,273.3h86.1v41.7H72.7V273.3z
				 M251.1,364.8H165v-91.5h86.1V364.8z M72.7,364.8v-43.7h86.1v43.7H72.7z"/>
			
				<rect x="165" y="277.8" transform="matrix(-1 -1.224647e-16 1.224647e-16 -1 410.2685 642.5555)" class="st1" width="80.3" height="87"/>
			<path class="st3" d="M168.6,318.7c0,2.1,1.7,3.7,3.7,3.7c2.1,0,3.7-1.7,3.7-3.7s-1.7-3.7-3.7-3.7
				C170.3,314.9,168.6,316.6,168.6,318.7z"/>
			<path class="st4" d="M172.4,322.4c1.5,0,2.8-0.9,3.4-2.2c0.2,0.5,0.3,1,0.3,1.6c0,2.1-1.7,3.7-3.7,3.7c-2.1,0-3.7-1.7-3.7-3.7
				c0-0.6,0.1-1.1,0.3-1.6C169.6,321.5,170.9,322.4,172.4,322.4z"/>
			<polygon class="st3" points="214.1,364.8 195,364.8 185.8,277.8 205,277.8 			"/>
			<polygon class="st3" points="190.1,364.8 186.3,364.8 177.1,277.8 180.9,277.8 			"/>
			
				<rect x="139.4" y="277.7" transform="matrix(-1 -1.224647e-16 1.224647e-16 -1 286.3894 592.5673)" class="st3" width="7.6" height="37.2"/>
			
				<rect x="108" y="277.7" transform="matrix(-1 -1.224647e-16 1.224647e-16 -1 223.496 592.5673)" class="st1" width="7.6" height="37.2"/>
			
				<rect x="131.8" y="280.3" transform="matrix(-1 -1.224647e-16 1.224647e-16 -1 271.2205 595.1838)" class="st1" width="7.6" height="34.6"/>
			
				<rect x="115.5" y="280.3" transform="matrix(-1 -1.224647e-16 1.224647e-16 -1 238.6649 595.1838)" class="st3" width="7.6" height="34.6"/>
			
				<rect x="123.1" y="277.7" transform="matrix(-1 -1.224647e-16 1.224647e-16 -1 251.1505 592.5673)" class="st0" width="4.9" height="37.2"/>
			
				<rect x="128" y="280.3" transform="matrix(-1 -1.224647e-16 1.224647e-16 -1 259.8438 595.1838)" class="st3" width="3.8" height="34.6"/>
			
				<rect x="100.4" y="277.7" transform="matrix(-1 -1.224647e-16 1.224647e-16 -1 208.3272 592.5673)" class="st0" width="7.6" height="37.2"/>
			
				<rect x="92.8" y="280.3" transform="matrix(-1 -1.224647e-16 1.224647e-16 -1 193.1584 595.1838)" class="st2" width="7.6" height="34.6"/>
			
				<rect x="76.5" y="280.3" transform="matrix(-1 -1.224647e-16 1.224647e-16 -1 160.6028 595.1838)" class="st2" width="7.6" height="34.6"/>
			
				<rect x="84.1" y="277.7" transform="matrix(-1 -1.224647e-16 1.224647e-16 -1 173.0884 592.5673)" class="st3" width="4.9" height="37.2"/>
			
				<rect x="89" y="280.3" transform="matrix(-1 -1.224647e-16 1.224647e-16 -1 181.7818 595.1838)" class="st0" width="3.8" height="34.6"/>
			
				<rect x="72.7" y="278.5" transform="matrix(-1 -1.224647e-16 1.224647e-16 -1 149.2262 593.4492)" class="st0" width="3.8" height="36.4"/>
			<rect x="72.7" y="327.6" class="st0" width="7.6" height="37.2"/>
			<rect x="104.2" y="327.6" class="st3" width="7.6" height="37.2"/>
			<rect x="80.3" y="330.2" class="st3" width="7.6" height="34.6"/>
			<rect x="96.6" y="330.2" class="st0" width="7.6" height="34.6"/>
			<rect x="91.7" y="327.6" class="st3" width="4.9" height="37.2"/>
			<rect x="87.9" y="330.2" class="st1" width="3.8" height="34.6"/>
			<rect x="111.7" y="327.6" class="st0" width="7.6" height="37.2"/>
			<rect x="119.3" y="330.2" class="st1" width="7.6" height="34.6"/>
			<rect x="135.6" y="330.2" class="st2" width="7.6" height="34.6"/>
			<rect x="130.7" y="327.6" class="st3" width="4.9" height="37.2"/>
			<rect x="147" y="327.6" class="st3" width="4.9" height="37.2"/>
			<rect x="126.9" y="330.2" class="st0" width="3.8" height="34.6"/>
			<rect x="143.2" y="328.5" class="st0" width="3.8" height="36.4"/>
		</g>
		<g>
			<g>
				<g>
					<g>
						<g>
							<g>
								<path class="st2" d="M81.2,198.3c0,0-1.3,0.6-1.9,1.8c-0.6,1.2,1.2,3.4,1.2,3.4s1.5,1.1,3,0.4c1.5-0.7,1.5-0.7,1.5-0.7
									s-2.6-4.5-3.8-4.5L81.2,198.3z"/>
							</g>
						</g>
						<g>
							<g>
								<path class="st2" d="M87.6,198.3c0.2,2.1-1.1,4.8-3,5c-1.9,0.2-3.6-2.2-3.8-4.4c-0.2-2.1,1.3-2.3,3.2-2.5
									C85.9,196.2,87.4,196.1,87.6,198.3z"/>
							</g>
							<g>
								<path class="st2" d="M82.1,197.6c0,0,1.4,1.2,4.4,0.5C86.5,198.1,81.8,201.2,82.1,197.6z"/>
							</g>
							<g>
								<path class="st2" d="M83.4,197.2c0,0,1.7-0.3,1.7,0.4c0,0,1.4-0.1,1.2-0.7C86.1,196.4,83.4,197.2,83.4,197.2z"/>
							</g>
							<g class="st6">
								<path class="st3" d="M82.1,197.6c0,0,1.4,1.2,4.4,0.5C86.5,198.1,81.8,201.2,82.1,197.6z"/>
							</g>
							<g class="st6">
								<path class="st3" d="M83.4,197.2c0,0,1.7-0.3,1.7,0.4c0,0,1.4-0.1,1.2-0.7C86.1,196.4,83.4,197.2,83.4,197.2z"/>
							</g>
						</g>
						<g>
							<path class="st2" d="M81.4,203.9c0.6,1,1.8,1.5,3,1.3c1.1-0.1,2.2-0.8,2.8-1.8c0.7-0.9,1-2.1,1-3.2c0-0.3,0-1-0.3-1.2
								c-0.4-0.1-0.6,0.4-0.7,0.6c-0.5,0.7-1,1.3-1.6,1.9c-0.6,0.5-1.2,1-1.9,1.4C83.4,203.1,81.5,204.1,81.4,203.9z"/>
						</g>
						<g>
							<path class="st2" d="M89.5,199.6c0.4,0.9,0.2,1.9-0.3,2.6c-0.4,0.5-0.9,0.8-1.4,1.2c-0.4,0.2-0.8,0.4-1.2,0.2
								c-0.4-0.2-0.4-0.8-0.3-1.3c0.1-0.7,0.3-1.4,0.5-2.1c0.1-0.6,0.2-1.5,0.6-2c0.3-0.4,0.7-0.2,1.2,0.1
								C89,198.8,89.4,199.2,89.5,199.6z"/>
						</g>
						<g class="st6">
							<path class="st3" d="M81.9,202.7c-0.7,0-1.4-0.5-1.7-1.2c-0.2-0.5-0.2-1.8,0.5-1.9C81,200.7,81.2,201.7,81.9,202.7z"/>
						</g>
						<g class="st6">
							<path class="st3" d="M86.8,202.7c0.7-0.2,1.3-0.8,1.5-1.4c0.1-0.4,0-2.3-0.6-1.5c-0.2,0.3-0.2,1.1-0.3,1.5
								C87.3,201.7,87.1,202.2,86.8,202.7z"/>
						</g>
						<g class="st6">
							<path class="st3" d="M84.2,203.9c0.5,0.5,1.4,0.5,1.9,0.1c-0.1,0.4-1.3,0.7-1.6,0.8c-1,0.3-1.5-0.1-2.4-0.5
								C82.1,204.2,83.6,204.4,84.2,203.9z"/>
						</g>
					</g>
					<g>
						<g>
							<polygon class="st4" points="82.5,242.8 82.6,213.9 84.1,205.2 84.7,205.3 83.2,214 83.1,243.3 							"/>
						</g>
					</g>
					<g>
						<path class="st4" d="M83.1,213.8l-0.5,0.3c-0.5-0.6-0.9-1.4-1.3-2.3c-0.7-1.4-1.6-2.9-2.8-4.3l0.4-0.4c1.3,1.4,2.2,3,2.9,4.4
							C82.3,212.5,82.7,213.3,83.1,213.8z"/>
					</g>
					<g>
						<path class="st2" d="M83.5,209.9c0.8-0.2,1.5-0.7,1.9-1.3c0.5-0.7,0.7-1.7,0.8-2.5c-1,0.3-2.1-0.2-3.1-0.1
							c-0.8,0.1-1.6,0.6-2,1.3c-0.5,0.9-0.8,2-0.3,2.4C81.2,210,82.5,210.2,83.5,209.9z"/>
					</g>
					<g>
						<g>
							<path class="st2" d="M79.7,207.9c-0.9,0.6-2.1,0.7-3.1,0.4c-1-0.3-1.3-1.9-1.7-2.9c0.9-0.2,3.3-0.1,3.9,0
								c0.5,0.1,1.1,0.3,1.4,0.8c0.3,0.5,0.2,1.1-0.2,1.5C79.8,207.6,79.7,207.9,79.7,207.9z"/>
						</g>
					</g>
					<g>
						<g>
							<path class="st2" d="M74.9,209.6c0.6-0.8,2.2-1.3,3.2-1.1c1,0.2,1.8,0.9,2.2,1.7c-0.3,0.6-1,1-1.6,1c-0.7,0-1.3-0.2-2-0.3
								c-0.6-0.2-1.3-0.4-2-0.3L74.9,209.6z"/>
						</g>
					</g>
				</g>
				<g>
					<g>
						<g>
							<g>
								<path class="st2" d="M94.2,204.7c0,0,1,0.9,1.3,2.2c0.2,1.3-2.2,2.9-2.2,2.9s-1.8,0.6-3-0.5c-1.2-1.1-1.2-1.1-1.2-1.1
									s3.8-3.5,5-3.2L94.2,204.7z"/>
							</g>
						</g>
						<g>
							<g>
								<path class="st2" d="M88,202.7c-0.8,2-0.3,4.9,1.4,5.6c1.8,0.7,4.1-1.1,4.9-3c0.8-2-0.6-2.6-2.4-3.3
									C90.3,201.3,88.8,200.8,88,202.7z"/>
							</g>
							<g>
								<path class="st2" d="M93.5,203.8c0,0-1.7,0.7-4.4-0.8C89.1,202.9,92.7,207.3,93.5,203.8z"/>
							</g>
							<g>
								<path class="st2" d="M92.4,203c0,0-1.5-0.8-1.7-0.1c0,0-1.3-0.5-1-1C90.1,201.4,92.4,203,92.4,203z"/>
							</g>
							<g class="st6">
								<path class="st3" d="M93.5,203.8c0,0-1.7,0.7-4.4-0.8C89.1,202.9,92.7,207.3,93.5,203.8z"/>
							</g>
							<g class="st6">
								<path class="st3" d="M92.4,203c0,0-1.5-0.8-1.7-0.1c0,0-1.3-0.5-1-1C90.1,201.4,92.4,203,92.4,203z"/>
							</g>
						</g>
						<g>
							<path class="st2" d="M92.3,209.9c-0.9,0.8-2.2,0.9-3.2,0.4c-1-0.5-1.8-1.4-2.2-2.5c-0.4-1.1-0.3-2.3,0-3.4
								c0.1-0.3,0.3-1,0.7-1c0.4,0,0.4,0.5,0.5,0.8c0.3,0.8,0.6,1.5,1,2.2c0.4,0.7,0.9,1.3,1.4,1.9
								C90.6,208.6,92.1,210.1,92.3,209.9z"/>
						</g>
						<g>
							<path class="st2" d="M85.8,203.5c-0.6,0.7-0.8,1.8-0.5,2.6c0.2,0.6,0.6,1.1,1,1.5c0.3,0.3,0.7,0.7,1.1,0.5
								c0.4-0.1,0.6-0.7,0.6-1.1c0.1-0.7,0.1-1.4,0.2-2.1c0-0.6,0.2-1.5,0-2.1c-0.2-0.5-0.7-0.4-1.2-0.2
								C86.6,202.8,86.1,203.1,85.8,203.5z"/>
						</g>
						<g class="st6">
							<path class="st3" d="M92.2,208.7c0.7,0.2,1.5-0.1,2-0.7c0.3-0.4,0.7-1.6,0.1-2C93.7,207,93.1,207.9,92.2,208.7z"/>
						</g>
						<g class="st6">
							<path class="st3" d="M87.5,207.2c-0.6-0.4-1-1.1-1-1.8c0-0.4,0.7-2.2,1-1.3c0.1,0.3-0.2,1.1-0.2,1.5
								C87.3,206.1,87.4,206.6,87.5,207.2z"/>
						</g>
						<g class="st6">
							<path class="st3" d="M89.7,209.1c-0.6,0.3-1.5,0-1.9-0.5c0,0.4,1,1,1.3,1.2c0.8,0.5,1.4,0.3,2.4,0.2
								C91.5,210,90.1,209.8,89.7,209.1z"/>
						</g>
					</g>
					<g>
						<g>
							<polygon class="st4" points="81.7,238.5 82.1,237.3 82.6,235.7 83.1,233.9 87.6,219.1 88.2,214.9 88.7,211.1 88.8,210.3 
								89.1,210.3 89.1,210.3 89.3,210.4 89.3,210.5 89.2,211.2 88.7,215.2 88.3,218.5 88.2,219.2 88.1,219.3 83.1,235.8 
								82.6,237.7 82.3,238.5 81.9,239.7 							"/>
						</g>
					</g>
					<g>
						<path class="st4" d="M87.7,218.9l0.3,0.5c0.6-0.4,1.2-1,1.9-1.8c1.1-1.1,2.4-2.4,4-3.3l-0.3-0.5c-1.7,1-2.9,2.3-4.1,3.4
							C88.9,217.9,88.3,218.5,87.7,218.9z"/>
					</g>
					<g>
						<path class="st2" d="M88.5,215.1c-0.7-0.4-1.2-1.1-1.4-1.8c-0.3-0.9-0.2-1.8-0.1-2.7c0.9,0.6,2,0.4,3,0.8
							c0.8,0.3,1.3,1,1.5,1.8c0.2,1,0.1,2.1-0.4,2.4C90.7,215.9,89.4,215.7,88.5,215.1z"/>
					</g>
					<g>
						<g>
							<path class="st2" d="M92.8,214.3c0.7,0.8,1.8,1.3,2.9,1.3c1.1,0,1.8-1.4,2.5-2.3c-0.8-0.5-3.2-1-3.7-1.1
								c-0.5-0.1-1.1,0-1.5,0.3c-0.4,0.4-0.6,1-0.2,1.5C92.8,214,92.8,214.3,92.8,214.3z"/>
						</g>
					</g>
					<g>
						<g>
							<path class="st2" d="M96.8,217.3c-0.4-0.9-1.7-1.9-2.7-2c-1-0.1-2,0.3-2.6,0.9c0.1,0.7,0.6,1.2,1.2,1.5
								c0.6,0.2,1.3,0.2,2,0.2c0.7,0,1.4,0,2,0.2L96.8,217.3z"/>
						</g>
					</g>
				</g>
				<g>
					<g>
						<g>
							<g>
								<path class="st2" d="M73.9,203.5c0,0-1.1,0.8-1.5,2.1c-0.4,1.3,1.8,3.1,1.8,3.1s1.7,0.8,3-0.2c1.4-0.9,1.4-0.9,1.4-0.9
									s-3.3-3.9-4.6-3.8L73.9,203.5z"/>
							</g>
						</g>
						<g>
							<g>
								<path class="st2" d="M80.3,202.3c0.6,2.1-0.3,4.9-2.1,5.4c-1.8,0.5-4-1.6-4.6-3.6c-0.6-2.1,0.9-2.5,2.7-3
									S79.7,200.3,80.3,202.3z"/>
							</g>
							<g>
								<path class="st2" d="M74.7,202.7c0,0,1.6,0.9,4.4-0.3C79.1,202.4,75.1,206.3,74.7,202.7z"/>
							</g>
							<g>
								<path class="st2" d="M75.9,202.1c0,0,1.6-0.6,1.7,0.1c0,0,1.4-0.3,1.1-0.9C78.4,200.7,75.9,202.1,75.9,202.1z"/>
							</g>
							<g class="st6">
								<path class="st3" d="M74.7,202.7c0,0,1.6,0.9,4.4-0.3C79.1,202.4,75.1,206.3,74.7,202.7z"/>
							</g>
							<g class="st6">
								<path class="st3" d="M75.9,202.1c0,0,1.6-0.6,1.7,0.1c0,0,1.4-0.3,1.1-0.9C78.4,200.7,75.9,202.1,75.9,202.1z"/>
							</g>
						</g>
						<g>
							<path class="st2" d="M75.2,209c0.8,0.9,2.1,1.1,3.2,0.8c1.1-0.3,2-1.2,2.5-2.3c0.5-1,0.6-2.2,0.4-3.4c0-0.3-0.1-1-0.5-1.1
								c-0.4,0-0.5,0.5-0.6,0.8c-0.3,0.7-0.7,1.5-1.2,2.1c-0.5,0.6-1,1.2-1.7,1.7C77,207.8,75.3,209.1,75.2,209z"/>
						</g>
						<g>
							<path class="st2" d="M82.4,203.3c0.5,0.8,0.6,1.8,0.2,2.7c-0.3,0.5-0.7,1-1.2,1.4c-0.3,0.3-0.7,0.6-1.1,0.4
								c-0.4-0.2-0.5-0.7-0.5-1.2c0-0.7,0-1.4,0.1-2.1c0-0.6,0-1.5,0.2-2c0.2-0.5,0.7-0.3,1.2-0.1C81.7,202.6,82.1,202.9,82.4,203.3
								z"/>
						</g>
						<g class="st6">
							<path class="st3" d="M75.4,207.7c-0.7,0.1-1.5-0.3-1.9-0.9c-0.3-0.5-0.5-1.7,0.1-2C74.2,205.9,74.6,206.9,75.4,207.7z"/>
						</g>
						<g class="st6">
							<path class="st3" d="M80.3,206.8c0.6-0.3,1.1-1,1.2-1.7c0-0.4-0.4-2.3-0.9-1.4c-0.1,0.3,0,1.1,0,1.5
								C80.6,205.8,80.5,206.3,80.3,206.8z"/>
						</g>
						<g class="st6">
							<path class="st3" d="M77.9,208.4c0.6,0.4,1.4,0.2,1.9-0.3c0,0.4-1.1,0.9-1.4,1.1c-0.9,0.4-1.5,0.1-2.4-0.1
								C75.9,209.1,77.4,209.1,77.9,208.4z"/>
						</g>
					</g>
					<g>
						<g>
							<polygon class="st4" points="83.3,247.1 78.2,218.7 78,209.8 78.6,209.8 78.7,218.6 83.9,247.5 							"/>
						</g>
					</g>
					<g>
						<path class="st4" d="M78.6,218.4l-0.4,0.4c-0.6-0.5-1.1-1.2-1.7-2c-1-1.2-2.1-2.6-3.5-3.7l0.3-0.5c1.5,1.2,2.7,2.6,3.6,3.8
							C77.6,217.3,78.1,218,78.6,218.4z"/>
					</g>
					<g>
						<path class="st2" d="M78.3,214.6c0.7-0.3,1.3-0.9,1.6-1.7c0.4-0.8,0.4-1.8,0.4-2.7c-0.9,0.5-2.1,0.2-3.1,0.5
							c-0.8,0.2-1.5,0.9-1.7,1.7c-0.4,1-0.4,2.1,0.2,2.4C76.1,215.1,77.3,215,78.3,214.6z"/>
					</g>
					<g>
						<g>
							<path class="st2" d="M74.2,213.3c-0.8,0.7-1.9,1.1-3,1c-1.1-0.1-1.7-1.6-2.2-2.5c0.9-0.4,3.3-0.7,3.8-0.7
								c0.5,0,1.1,0.1,1.5,0.5c0.4,0.4,0.4,1.1,0.1,1.5C74.2,212.9,74.2,213.3,74.2,213.3z"/>
						</g>
					</g>
					<g>
						<g>
							<path class="st2" d="M69.8,215.8c0.5-0.9,1.9-1.7,2.9-1.7c1,0,1.9,0.5,2.4,1.2c-0.1,0.7-0.8,1.1-1.4,1.3
								c-0.7,0.2-1.3,0.1-2,0c-0.7-0.1-1.4-0.2-2,0L69.8,215.8z"/>
						</g>
					</g>
				</g>
			</g>
			<g>
				<path class="st5" d="M85.4,229.6h-6c-0.4,0-0.8,0.3-1,0.7c-0.5,1.6-1.5,5.6-1.5,12.1c0,7.1,1.8,16.4,2.4,19.2
					c0.1,0.5,0.5,0.8,1,0.8h4.2c0.5,0,0.9-0.3,1-0.8c0.6-2.8,2.4-12.1,2.4-19.2c0-6.4-1-10.5-1.5-12.1
					C86.2,229.9,85.8,229.6,85.4,229.6z"/>
			</g>
		</g>
	</g>
</g>
<g id="Shadow">
	<ellipse id="_x3C_Path_x3E__359_" class="st1" cx="250" cy="415.7" rx="193.9" ry="11.3"/>
</g>
<g id="Plant">
	<g>
		<g>
			<g>
				<g>
					<path class="st7" d="M120.8,376.8c-0.3,0-0.6-0.3-0.6-0.7c0.7-29.4,2.3-77.6,2.3-77.9c0.1-0.3,0.5-0.5,0.8-0.4
						c0.3,0.1,0.5,0.5,0.4,0.8c0,0.1-1.5,48.4-2.3,77.5C121.5,376.5,121.2,376.8,120.8,376.8C120.8,376.8,120.8,376.8,120.8,376.8z"
						/>
				</g>
				<g>
					<g>
						<path class="st8" d="M116.8,278.6c0.2,2.3,3,10.1,5.2,9.9c2.3-0.2,3.2-8.5,3-10.8c-0.2-2.3-2.3-3.9-4.5-3.7
							C118.2,274.3,116.6,276.4,116.8,278.6z"/>
						<path class="st8" d="M127.8,303.4c-0.2-2.3-3-10.1-5.2-9.9c-2.3,0.2-3.2,8.5-3,10.8c0.2,2.3,2.3,3.9,4.5,3.7
							C126.4,307.7,128.1,305.6,127.8,303.4z"/>
						<path class="st8" d="M109.9,296.5c2.3-0.2,10.1-3,9.9-5.2c-0.2-2.3-8.5-3.2-10.8-3c-2.3,0.2-3.9,2.3-3.7,4.5
							C105.7,295.1,107.7,296.7,109.9,296.5z"/>
						<path class="st8" d="M134.7,285.5c-2.3,0.2-10.1,3-9.9,5.2c0.2,2.3,8.5,3.2,10.8,3c2.3-0.2,3.9-2.3,3.7-4.5
							C139,286.9,137,285.3,134.7,285.5z"/>
						<path class="st8" d="M109.7,286.1c1.8,1.4,9.2,5.1,10.7,3.3c1.4-1.8-3.7-8.3-5.5-9.7c-1.8-1.4-4.4-1.1-5.8,0.6
							C107.6,282.1,107.9,284.7,109.7,286.1z"/>
						<path class="st8" d="M135,295.9c-1.8-1.4-9.2-5.1-10.7-3.3c-1.4,1.8,3.7,8.3,5.5,9.7c1.8,1.4,4.4,1.1,5.8-0.6
							C137,299.9,136.7,297.3,135,295.9z"/>
						<path class="st8" d="M117.5,303.6c1.4-1.8,5.1-9.2,3.3-10.7c-1.8-1.4-8.3,3.7-9.7,5.5c-1.4,1.8-1.1,4.4,0.6,5.8
							C113.4,305.7,116,305.4,117.5,303.6z"/>
						<path class="st8" d="M127.2,278.4c-1.4,1.8-5.1,9.2-3.3,10.7c1.8,1.4,8.3-3.7,9.7-5.5c1.4-1.8,1.1-4.4-0.6-5.8
							C131.2,276.3,128.6,276.6,127.2,278.4z"/>
					</g>
					<g class="st9">
						<path class="st10" d="M116.8,278.6c0.2,2.3,3,10.1,5.2,9.9c2.3-0.2,3.2-8.5,3-10.8c-0.2-2.3-2.3-3.9-4.5-3.7
							C118.2,274.3,116.6,276.4,116.8,278.6z"/>
						<path class="st10" d="M127.8,303.4c-0.2-2.3-3-10.1-5.2-9.9c-2.3,0.2-3.2,8.5-3,10.8c0.2,2.3,2.3,3.9,4.5,3.7
							C126.4,307.7,128.1,305.6,127.8,303.4z"/>
						<path class="st10" d="M109.9,296.5c2.3-0.2,10.1-3,9.9-5.2c-0.2-2.3-8.5-3.2-10.8-3c-2.3,0.2-3.9,2.3-3.7,4.5
							C105.7,295.1,107.7,296.7,109.9,296.5z"/>
						<path class="st10" d="M134.7,285.5c-2.3,0.2-10.1,3-9.9,5.2c0.2,2.3,8.5,3.2,10.8,3c2.3-0.2,3.9-2.3,3.7-4.5
							C139,286.9,137,285.3,134.7,285.5z"/>
						<path class="st10" d="M109.7,286.1c1.8,1.4,9.2,5.1,10.7,3.3c1.4-1.8-3.7-8.3-5.5-9.7c-1.8-1.4-4.4-1.1-5.8,0.6
							C107.6,282.1,107.9,284.7,109.7,286.1z"/>
						<path class="st10" d="M135,295.9c-1.8-1.4-9.2-5.1-10.7-3.3c-1.4,1.8,3.7,8.3,5.5,9.7c1.8,1.4,4.4,1.1,5.8-0.6
							C137,299.9,136.7,297.3,135,295.9z"/>
						<path class="st10" d="M117.5,303.6c1.4-1.8,5.1-9.2,3.3-10.7c-1.8-1.4-8.3,3.7-9.7,5.5c-1.4,1.8-1.1,4.4,0.6,5.8
							C113.4,305.7,116,305.4,117.5,303.6z"/>
						<path class="st10" d="M127.2,278.4c-1.4,1.8-5.1,9.2-3.3,10.7c1.8,1.4,8.3-3.7,9.7-5.5c1.4-1.8,1.1-4.4-0.6-5.8
							C131.2,276.3,128.6,276.6,127.2,278.4z"/>
					</g>
					<path class="st8" d="M117.5,291.5c0.3,2.7,2.7,4.6,5.4,4.3c2.7-0.3,4.6-2.7,4.3-5.4c-0.3-2.7-2.7-4.6-5.4-4.3
						C119.1,286.4,117.2,288.9,117.5,291.5z"/>
				</g>
			</g>
			<g>
				<path class="st8" d="M118,355.2c-5.6,0.1-15.3-5.1-19.1-10.2c-3.8-5.2,6.9-2,5.8-6c-1.1-4.1-14.4-1-16.9-6.8
					c-2.5-5.8,7.1-4.5,6.7-7.5c-0.4-3-10.3-2.3-13.5-8.5c-3.2-6.2,5.5-2.7,4.2-5.3c-1.4-2.6-12.4-13.3-7.8-15.6
					c4.6-2.3,14.9,8.9,18.3,10.2c3.4,1.2,4.2-6.5,8.7-2.8c4.5,3.7,1.2,19.9,6.5,22c3.9,1.6,2.2-5.8,6.8-4
					C125.6,324.1,120.2,355.2,118,355.2z"/>
				<g class="st6">
					<path class="st10" d="M118,355.2c-5.6,0.1-15.3-5.1-19.1-10.2c-3.8-5.2,6.9-2,5.8-6c-1.1-4.1-14.4-1-16.9-6.8
						c-2.5-5.8,7.1-4.5,6.7-7.5c-0.4-3-10.3-2.3-13.5-8.5c-3.2-6.2,5.5-2.7,4.2-5.3c-1.4-2.6-12.4-13.3-7.8-15.6
						c4.6-2.3,14.9,8.9,18.3,10.2c3.4,1.2,4.2-6.5,8.7-2.8c4.5,3.7,1.2,19.9,6.5,22c3.9,1.6,2.2-5.8,6.8-4
						C125.6,324.1,120.2,355.2,118,355.2z"/>
				</g>
			</g>
			<g>
				<g>
					<path class="st8" d="M126,348.1c0.1,0.2-0.7,1,2,1.1c6.9,0.3,19-0.2,23.5-6.4c6.5-8.9-8.5-8.1-7-13c1.5-4.9,17.5-0.9,20.7-7.9
						c3.1-7-8.6-5.6-8-9.2c0.5-3.6,12.8,1.1,16.9-6.4c4-7.4-6.7-3.5-4.9-6.5c1.7-3.1,15.4-15.9,9.8-18.7
						c-5.5-2.9-18.3,10.5-22.5,11.9c-4.2,1.4-5.2-11.7-10.7-7.3c-5.5,4.4-1.9,24.2-8.4,26.6c-4.8,1.8-2.2-5.3-8.1-5
						C121.1,307.7,118.5,335.4,126,348.1z"/>
				</g>
				<g class="st11">
					<path class="st10" d="M126,348.1c0.1,0.2-0.7,1,2,1.1c6.9,0.3,19-0.2,23.5-6.4c6.5-8.9-8.5-8.1-7-13c1.5-4.9,17.5-0.9,20.7-7.9
						c3.1-7-8.6-5.6-8-9.2c0.5-3.6,12.8,1.1,16.9-6.4c4-7.4-6.7-3.5-4.9-6.5c1.7-3.1,15.4-15.9,9.8-18.7
						c-5.5-2.9-18.3,10.5-22.5,11.9c-4.2,1.4-5.2-11.7-10.7-7.3c-5.5,4.4-1.9,24.2-8.4,26.6c-4.8,1.8-2.2-5.3-8.1-5
						C121.1,307.7,118.5,335.4,126,348.1z"/>
				</g>
			</g>
			<g>
				<g>
					<g>
						<g>
							<g>
								<g>
									<g>
										<g>
											<g>
												<path class="st7" d="M120.9,372.3C120.9,372.3,120.9,372.3,120.9,372.3c-0.3,0-0.5-0.3-0.4-0.5
													c5.6-46,32.1-64.7,32.4-64.9c0.2-0.1,0.5-0.1,0.6,0.1c0.1,0.2,0.1,0.5-0.1,0.6c-0.3,0.2-26.4,18.7-32,64.3
													C121.3,372.2,121.1,372.3,120.9,372.3z"/>
											</g>
											<g>
												<path class="st7" d="M146.9,313.3c-0.2,0-0.3-0.1-0.4-0.3c-0.1-0.2,0.1-0.5,0.3-0.6c0.2-0.1,4.1-1.3,10.6,0.1
													c0.2,0.1,0.4,0.3,0.3,0.5c-0.1,0.2-0.3,0.4-0.5,0.3c-6.2-1.3-10.1-0.1-10.1-0.1C147,313.3,146.9,313.3,146.9,313.3z"/>
											</g>
											<g>
												<path class="st7" d="M142,318.9c-0.2,0-0.4-0.2-0.4-0.4c-0.1-13.9,7.9-24.8,8-24.9c0.1-0.2,0.4-0.2,0.6-0.1
													c0.2,0.1,0.2,0.4,0.1,0.6c-0.1,0.1-8,10.7-7.8,24.4C142.4,318.7,142.2,318.9,142,318.9C142,318.9,142,318.9,142,318.9z"
													/>
											</g>
											<g>
												<path class="st7" d="M134.1,330.7c-0.1,0-0.2-0.1-0.3-0.1c-0.2-0.2-0.2-0.5,0-0.6c0.1-0.1,6-5.6,13.8-2.8
													c0.2,0.1,0.4,0.3,0.3,0.6c-0.1,0.2-0.3,0.4-0.6,0.3c-7.3-2.6-12.9,2.5-12.9,2.6C134.3,330.7,134.2,330.7,134.1,330.7z"
													/>
											</g>
											<g>
												<path class="st7" d="M129.9,338.9c-0.2,0-0.3-0.1-0.4-0.3c-0.1-0.3-3-7.3-1.4-17.3c0-0.2,0.3-0.4,0.5-0.4
													c0.2,0,0.4,0.3,0.4,0.5c-1.6,9.7,1.3,16.7,1.4,16.8c0.1,0.2,0,0.5-0.2,0.6C130.1,338.9,130,338.9,129.9,338.9z"/>
											</g>
										</g>
									</g>
								</g>
							</g>
						</g>
					</g>
					<g>
						<g>
							<g>
								<path class="st7" d="M121.1,388.8c-0.2,0-0.4-0.2-0.4-0.4l-0.6-12.2c-1.7-40.5-29.5-68.1-29.8-68.4c-0.2-0.2-0.2-0.5,0-0.6
									c0.2-0.2,0.5-0.2,0.6,0c0.3,0.3,28.3,28.1,30.1,69l0.6,12.2C121.6,388.6,121.4,388.8,121.1,388.8
									C121.1,388.8,121.1,388.8,121.1,388.8z"/>
							</g>
							<g>
								<path class="st7" d="M101.8,323C101.7,323,101.7,323,101.8,323c-0.1,0-0.2,0-0.2-0.1l-0.1-0.1c-3.6-1.5-7.7-2.3-11.4-2.2
									c-0.3,0-0.5-0.2-0.5-0.4c0-0.2,0.2-0.4,0.4-0.5c3.9-0.1,8.1,0.7,11.8,2.3l0.1,0.1c0,0,0.1,0,0.1,0c0.2,0.1,0.3,0.3,0.2,0.5
									C102.2,322.9,102,323,101.8,323z"/>
							</g>
							<g>
								<path class="st7" d="M105.7,328.2C105.7,328.2,105.7,328.2,105.7,328.2c-0.3,0-0.4-0.2-0.4-0.5c1.1-12-5.1-21.8-5.2-21.9
									c-0.1-0.2-0.1-0.5,0.1-0.6c0.2-0.1,0.5-0.1,0.6,0.1c0.1,0.1,6.4,10.2,5.3,22.5C106.1,328.1,105.9,328.2,105.7,328.2z"/>
							</g>
							<g>
								<path class="st7" d="M109.8,335.2c-0.1,0-0.2,0-0.3-0.1c0,0-4.6-4.5-11.2-2.7c-0.2,0.1-0.5-0.1-0.5-0.3
									c-0.1-0.2,0.1-0.5,0.3-0.5c7.1-1.9,11.8,2.8,12,3c0.2,0.2,0.2,0.5,0,0.6C110,335.1,109.9,335.2,109.8,335.2z"/>
							</g>
							<g>
								<path class="st7" d="M114.9,346.6c-0.1,0-0.1,0-0.2-0.1c-0.2-0.1-0.3-0.4-0.2-0.6c0-0.1,3.1-6,2.4-14.7
									c0-0.2,0.2-0.5,0.4-0.5c0.2,0,0.5,0.2,0.5,0.4c0.7,8.9-2.4,14.9-2.5,15.1C115.2,346.5,115.1,346.6,114.9,346.6z"/>
							</g>
						</g>
					</g>
				</g>
			</g>
		</g>
		<g>
			<g>
				<path class="st8" d="M146.2,390.7c0,14.2-6.4,25.7-25.8,25.7c-18.5,0-25.8-11.5-25.8-25.7c0-5.4,1.6-10.3,4.5-14.5h42.6
					C144.5,380.3,146.2,385.3,146.2,390.7z"/>
				<path class="st12" d="M146.2,390.7c0,14.2-6.4,25.7-25.8,25.7c-18.5,0-25.8-11.5-25.8-25.7c0-5.4,1.6-10.3,4.5-14.5h42.6
					C144.5,380.3,146.2,385.3,146.2,390.7z"/>
			</g>
		</g>
	</g>
</g>
<g id="Character">
	<g>
		<g>
			<g>
				<g>
					<g>
						<g>
							<polygon class="st13" points="294.1,403.9 304.1,402.4 301.5,379.1 291.6,380.6 							"/>
							<g>
								<path class="st8" d="M311.7,402.8c0.9-0.1,1.7-0.4,2.3-1c0.3-0.3,0.4-0.8,0.2-1.2c-0.1-0.3-0.2-0.5-0.5-0.6
									c-1.3-0.5-5,2.2-5.4,2.5c-0.1,0.1-0.1,0.2-0.1,0.3c0,0.1,0.1,0.2,0.2,0.2C309.6,403,310.7,402.9,311.7,402.8z M313.1,400.4
									c0.1,0,0.3,0,0.5,0c0.1,0,0.2,0.1,0.2,0.2c0.1,0.3,0,0.6-0.1,0.8c-0.5,0.6-2.1,1-4.4,1C310.4,401.6,311.7,400.9,313.1,400.4
									L313.1,400.4z"/>
								<path class="st8" d="M308.6,402.9L308.6,402.9c1.2-0.8,3.2-3.3,2.8-4.4c-0.1-0.2-0.3-0.6-1-0.5c-0.5,0-0.9,0.2-1.3,0.6
									c-1.1,1.2-0.9,4-0.9,4.1c0,0.1,0,0.2,0.1,0.2C308.4,402.9,308.5,402.9,308.6,402.9z M310.3,398.5l0.1-0.1
									c0.4,0,0.5,0.1,0.5,0.2c0.2,0.7-1.1,2.6-2.2,3.5c-0.1-1.1,0.2-2.3,0.8-3.3C309.7,398.6,310,398.5,310.3,398.5L310.3,398.5z"
									/>
							</g>
							<path class="st7" d="M303,398.3l-8.8,2.1c-0.4,0.1-0.7,0.5-0.6,0.9l0.3,12.8c0.1,0.9,0.9,1.5,1.8,1.4c0.1,0,0.1,0,0.2,0
								c3.8-1,5.6-1.6,10.5-2.7c3-0.7,12.4-1.4,16.3-3.1c3.9-1.7,2.4-5.6,0.6-5.3c-5.7,1.2-13-1.2-17.1-4.9
								C305.6,399.1,303.6,398.1,303,398.3z"/>
							<polygon class="st6" points="301.5,379.1 302.8,391.1 292.9,392.6 291.6,380.6 							"/>
							<path class="st8" d="M306.9,386.2l-18.4,3.4c0,0-8.9-12.8-10.6-21.8c-1.8-9.4,0.1-41.6,0-42c-5.2-17.6-19.4-63.2-26.2-80
								c-3.8-9.3-6.4-15.6-6.4-15.6l1.9-0.4l15-6.2l11,2.1c0,0,33.3,67.4,36.8,92.7C312.5,337.3,306.9,386.2,306.9,386.2z"/>
							<path class="st14" d="M306.9,386.2l-18.4,3.4c0,0-8.9-12.8-10.6-21.8c-1.8-9.4,0.1-41.6,0-42c-5.2-17.6-19.4-63.2-26.2-80
								c-3.8-9.3-6.4-15.6-6.4-15.6l1.9-0.4l15-6.2l11,2.1c0,0,33.3,67.4,36.8,92.7C312.5,337.3,306.9,386.2,306.9,386.2z"/>
							<path class="st15" d="M273.5,310.5c-5.2-17.6-15.7-44.3-22.6-61.1l-4.5-16l-0.9-3.1l1.6,2.9l17.9,39.5
								C272.8,287.9,273.6,310.9,273.5,310.5z"/>
						</g>
						<g>
							<polygon class="st13" points="192.6,398.4 201.4,402.1 210.9,381.8 202,378 							"/>
							<g>
								<path class="st8" d="M207.2,406.4c0.7,0.4,1.5,0.6,2.4,0.5c0.4-0.1,0.7-0.4,0.9-0.8c0.1-0.2,0.1-0.5-0.1-0.7
									c-0.8-1.1-5.1-1.1-5.6-1.1c-0.1,0-0.2,0.1-0.2,0.2c0,0.1,0,0.2,0.1,0.2C205.5,405.3,206.3,405.9,207.2,406.4z M209.6,405.4
									c0.1,0.1,0.3,0.1,0.3,0.3c0.1,0.1,0.1,0.2,0,0.3c-0.1,0.3-0.3,0.5-0.6,0.5c-0.8,0.2-2.2-0.4-4-1.7
									C206.9,404.7,208.3,404.9,209.6,405.4L209.6,405.4z"/>
								<path class="st8" d="M204.7,404.7L204.7,404.7c1.3,0.1,4.3-0.8,4.7-1.8c0.1-0.3,0.1-0.6-0.5-1c-0.4-0.3-0.9-0.4-1.3-0.3
									c-1.5,0.3-2.9,2.6-3,2.7c0,0.1-0.1,0.1,0,0.2C204.6,404.6,204.7,404.7,204.7,404.7z M208.5,402.3l0.1,0
									c0.3,0.2,0.3,0.4,0.3,0.4c-0.2,0.6-2.3,1.4-3.7,1.5c0.6-0.9,1.4-1.7,2.4-2.1C208,402,208.3,402.1,208.5,402.3L208.5,402.3z"
									/>
							</g>
							<path class="st7" d="M203.1,398l-8-3.4c-0.4-0.2-0.8,0-1,0.3l-7,10c-0.4,0.8-0.1,1.7,0.6,2.1c0.1,0,0.1,0.1,0.2,0.1
								c3.5,1.4,5.3,1.9,9.6,3.8c2.7,1.2,10.4,5.9,14.3,6.8c4,0.9,5-3,3.4-3.7c-5.1-2.3-9.3-8.3-10.4-13.5
								C204.6,400.1,203.6,398.2,203.1,398z"/>
							<polygon class="st6" points="211.3,382 206.2,392.4 197.4,388.4 202.5,378.1 							"/>
							<path class="st8" d="M213.2,393.3l-17.7-9.4c0,0-3.4-12.6,0-20.6c6.5-15.5,23.5-38.2,23.6-38.6c4.5-17.8,12.5-66.5,15.2-84.4
								c1.5-9.9,2.4-12.1,2.4-12.1l1.9,0.6l27.1,0.1c0,0,5.1,41-14.5,104.4c-4.9,15.8-13,28.9-26.4,46.7
								C219.6,386.7,213.2,393.3,213.2,393.3z"/>
							<path class="st14" d="M213.2,393.3l-17.7-9.4c0,0-3.4-12.6,0-20.6c6.5-15.5,23.5-38.2,23.6-38.6
								c4.5-17.8,12.5-66.5,15.2-84.4c1.5-9.9,2.4-12.1,2.4-12.1l1.9,0.6l27.1,0.1c0,0,5.1,41-14.5,104.4
								c-4.9,15.8-13,28.9-26.4,46.7C219.6,386.7,213.2,393.3,213.2,393.3z"/>
						</g>
						<g>
							<g>
								<path class="st13" d="M289.6,195.4c0.2-3,2.2-7,4-8.8c0.6-0.6,2.7-1.5,3.9-2.2c5.9-3.9,17.6-8.7,17.6-8.7l3.6,3.2
									c0,0-7.2,6.9-11.4,10.2c-0.8,0.7-1.8,1.4-2.8,2.3c-1.9,1.5-10.6,7.3-12.2,8.7L289.6,195.4z"/>
								<path class="st13" d="M325.3,173.9l-6.7,5l-3.8-2.8c0,0,1.5-2,3.1-3.5c0.7-0.7,1.1-1.6,1.1-2.5c0-1.5,0.2-3.2,1-4.5
									c0,0,0-0.1,0-0.1c1.5-2.2,4.9-1.5,5.5,1l1,3.6C327,171.6,326.5,173.1,325.3,173.9z"/>
							</g>
							<g>
								<path class="st7" d="M291.7,196.7l-1.8,1.6c-0.6-0.4-1.4-1.2-2.5-2.1c-8.6-7.2-30.2-24.5-21.6-29.5
									c7.4-4.2,15.2,8.7,19.1,12.7c0.8,0.8,3,3.3,4.7,6.5C291.5,189.3,292.9,193.3,291.7,196.7z"/>
							</g>
							<path class="st7" d="M289.7,184.4c-3.1,2.2-5.7,5.1-7.6,8.3c1.4,4.7,5,8.8,9.5,10.7c2.5-5.7,3.6-11.9,3.1-18.1
								C293.1,185,291.2,184.7,289.7,184.4z"/>
							<path class="st7" d="M242.2,165.8c-3.1,1-6.6,0.2-8.6,2.8c-2,2.6-2.6,5.9-2.6,9.2c0,4.5,1,8.9,2.1,13.3
								c1.2,5.3,2.5,10.6,3.7,16c0.8,3.6,0,20.5,0.9,20.8c0,0,28.3-0.6,35.4-1.5c0,0,0.6-17.4,1.2-23.3c0.1-1.3,2.1-6.9,2.4-8.3
								c1.1-6.6-1.1-11.3-3.3-17.5c0,0-5-10.1-7.4-10.4C261.4,166.3,250.8,163,242.2,165.8z"/>
							<path class="st7" d="M241,174.1c-0.1-0.6-5.1-10.7-9.9-3.6c-6.7,9.9-7.1,22.2-7.1,22.2s-4.1,12-1.2,14.7c2.9,2.6,6,4.3,8,2.8
								c2-1.5,3.3-4.5,3.3-4.5S242.8,184.5,241,174.1z"/>
							<g>
								<path class="st7" d="M240.7,162c-2.1,1.6-1.8,5.5,0.5,6.8c-0.6,2,0.1,4.4,1.7,5.8c1.6,1.4,4,1.8,6,1
									c-0.8,1.5,0.1,3.5,1.6,4.5c1.5,0.9,3.3,1.1,5,1.3c1.7,0.2,3.5,0.6,4.8,1.8c1.8-2.6,3.6-5.1,5.3-7.7c0.7-1,1.4-2.1,1.5-3.3
									c0.1-1.2-0.9-2.6-2.1-2.5c1.2-1.3,1.3-3.5,0.1-4.8c-1.2-1.3-3.5-1.5-4.8-0.4c0.2-1-0.4-2.1-1.2-2.7c-0.9-0.6-1.9-0.8-3-0.9
									L240.7,162z"/>
							</g>
							<path class="st13" d="M243.9,149c1.4,5.1,3.1,14.5-0.3,18.2c0,0,9.5,3.8,16.3,11.5c3.2-3.1,2.8-6.5,1.9-9
								c-0.7-2-2.4-3.4-4.3-4.2c-3.7-1.6-3.7-5.2-3.1-8.7L243.9,149z"/>
							<g>
								<path class="st15" d="M246,157.7l3.5,1c1.5,0.4,3.1,0.5,4.6,0.3l0,0c0,0.8-0.2,2.4,0.3,3.2c-2,1-5.4,0.3-6.9-1.5
									C246.9,160,246.3,158.6,246,157.7z"/>
								<g>
									<g>
										<path class="st13" d="M237.1,144.7c3.7,7.8,5.1,11.2,10.8,13.7c8.6,3.8,17.4-2.5,16.1-11.3c-1.2-7.9-7.1-19.4-16.2-19.5
											c-6.5-0.1-11.9,5.2-12,11.7C235.9,141.2,236.3,143,237.1,144.7z"/>
										<path class="st7" d="M241.2,129.7c-2.7-1.3-6.1-0.2-8.3,1.8c-2.3,2-3.7,4.8-5,7.6c-0.7,1.5-1.5,3-1.8,4.6
											c-0.3,1.6-0.2,3.4,0.6,4.8c0.8,1.4,2.4,2.3,4,2.4c0.9,0.1,2,0.7,2.3,1.6c0.3,0.8,0.1,1.7,0,2.6c-0.1,0.8-0.2,1.7,0,2.5
											c0.4,1.3,1.8,2.1,3.2,2.3c1.4,0.1,2.8-0.3,4.1-0.7c0.8-0.3,1.7-0.1,2.3,0.5c0.2,0.1,0.3,0.3,0.4,0.5
											c0.4,0.8,1.6,0.7,2-0.2c1.2-2.9-0.6-7.5-3.2-11c-1.4-1.9-1.3-1.4-1.9-3.6c-0.5-1.9,0.2-3.8,1.1-5.6
											c1.1-2.3,2.6-4.6,2.1-7.4C243,131.2,242.2,130.2,241.2,129.7z"/>
										<path class="st13" d="M237.3,152.7c1.2,1.3,2.9,2.1,4.7,2.1c2.4,0.1,3-2.2,1.8-4.2c-1-1.8-3.5-3.9-5.7-3
											C236,148.5,235.8,151,237.3,152.7z"/>
										<g>
											<path class="st7" d="M252,143.3c0.3,0.7,0.8,1.1,1.3,0.9c0.4-0.2,0.5-0.8,0.3-1.5c-0.2-0.7-0.8-1-1.3-0.9
												C251.9,141.9,251.8,142.6,252,143.3z"/>
											<path class="st7" d="M259.4,140.1c0.3,0.7,0.8,1.1,1.2,0.9c0.4-0.2,0.5-0.8,0.3-1.5s-0.8-1-1.2-0.9
												C259.2,138.8,259.1,139.5,259.4,140.1z"/>
											<path class="st7" d="M259.5,138.7l1.4-1.1C260.9,137.6,260.6,139.2,259.5,138.7z"/>
											<path class="st16" d="M257.5,141.6c1.7,1.7,3,2,4.8,3.1c-0.1,1.6-1.6,2-1.6,2L257.5,141.6z"/>
											<path class="st7" d="M259.9,149.9c0.3-0.1,0.6-0.3,0.9-0.4c0.1-0.1,0.1-0.2,0.1-0.3c0,0,0,0,0,0
												c-0.1-0.1-0.2-0.1-0.3-0.1c-1.6,0.9-3.4,1-5.1,0.3c-0.1-0.1-0.2,0-0.3,0.1c-0.1,0.1,0,0.2,0.1,0.3
												C256.8,150.4,258.4,150.5,259.9,149.9z"/>
											<path class="st7" d="M251.8,137.8c0,0.2-0.1,0.3-0.3,0.4c-1.9,0.6-2.8,3-2.8,3c-0.1,0.2-0.3,0.3-0.5,0.3
												c-0.2-0.1-0.3-0.3-0.3-0.5c0.1-0.1,1-2.9,3.3-3.6c0.2-0.1,0.5,0.1,0.5,0.3C251.7,137.7,251.8,137.8,251.8,137.8z"/>
											<path class="st7" d="M260.6,136.6c-0.2,0.1-0.4,0.1-0.5,0c-1.6-1.3-4-0.6-4.1-0.6c-0.2,0.1-0.5-0.1-0.5-0.3
												c-0.1-0.2,0.1-0.5,0.3-0.5c0.1,0,2.9-0.8,4.8,0.7c0.2,0.2,0.2,0.4,0.1,0.6C260.7,136.6,260.6,136.6,260.6,136.6z"/>
											<path class="st7" d="M252.2,141.9l1.4-1.1C253.5,140.8,253.2,142.3,252.2,141.9z"/>
										</g>
									</g>
									<path class="st7" d="M241.8,128.4c-2.2,0.2-4.3,1.4-5.4,3.3c-0.8,1.2-1.1,3.1,0.1,4c0.6,0.4,1.3,0.5,2,0.5
										c3,0.3,6.8-2.1,6.8-2.1c-1.2-5,9.3-8.8,14.4-1.1c1.5,2.3,1.1,3.9,3.6,4.9c1.2,0.5,2.7,0.4,3.5,1.4c1.3,1.7-1.2,4.6,0.4,6.1
										c1,1,3.4,0.6,3.6,2.1c0.1,0.7-0.4,1.7,0.3,1.9c0.4,0.1,0.7-0.2,0.9-0.5c0.6-0.7,1.1-1.5,1.3-2.4c0.2-0.9-0.1-2-1-2.3
										c-0.6-0.3-2.3,0-2.2,0.7c0.1,0.8-0.6-3.3-0.3-4.8c0.3-1.3,1.6-2.5,1.2-3.8c-0.4-1.4-2.1-2-3.5-2.2c-1.4-0.2-3.1-0.4-4-1.6
										c-1-1.3-0.5-3.2-0.9-4.8c-0.4-2-2.1-3.6-4-4.5C252.7,120.7,243.8,121.1,241.8,128.4z"/>
								</g>
							</g>
							<g>
								<g>
									<g>
										<path class="st8" d="M258.2,155l-20,10c-6.6,3.3-9.5,11.1-6.9,17.9l9.6,24.6c2.7,6.8,10.1,10.5,17.2,8.5l21.5-6.2
											c8.1-2.3,12.4-11.1,9.3-18.9l-11.2-28.4C274.8,154.8,265.7,151.3,258.2,155z M254.9,197.3c-4.5,1.7-9.5-0.5-11.2-4.9
											c-1.7-4.5,0.5-9.5,4.9-11.2c4.5-1.7,9.5,0.5,11.2,4.9C261.6,190.5,259.4,195.5,254.9,197.3z"/>
										<path class="st8" d="M258.2,155l-20,10c-6.6,3.3-9.5,11.1-6.9,17.9l9.6,24.6c2.7,6.8,10.1,10.5,17.2,8.5l21.5-6.2
											c8.1-2.3,12.4-11.1,9.3-18.9l-11.2-28.4C274.8,154.8,265.7,151.3,258.2,155z M254.9,197.3c-4.5,1.7-9.5-0.5-11.2-4.9
											c-1.7-4.5,0.5-9.5,4.9-11.2c4.5-1.7,9.5,0.5,11.2,4.9C261.6,190.5,259.4,195.5,254.9,197.3z"/>
										<path class="st17" d="M289.1,191l-11.2-28.4c-3.1-7.8-12.2-11.3-19.7-7.5l-5.8,2.9l-3.9,2l-10.3,5.2
											c-6.6,3.3-9.6,11.1-6.9,17.9l9.6,24.6c2.7,6.9,10.2,10.5,17.2,8.5l21.5-6.2c1.8-0.5,3.3-1.3,4.7-2.4
											c1.1-0.8,2-1.7,2.8-2.8C290,200.9,290.9,195.8,289.1,191z M254.9,197.3c-4.5,1.7-9.5-0.5-11.2-4.9
											c-1.7-4.5,0.5-9.5,4.9-11.2c4.5-1.7,9.5,0.5,11.2,4.9C261.6,190.5,259.4,195.5,254.9,197.3z"/>
										<path class="st8" d="M258.4,156.9l-18.8,9.4c-6.2,3.1-9,10.4-6.4,16.8l9,23.1c2.5,6.4,9.5,9.9,16.1,8l20.2-5.8
											c7.6-2.2,11.6-10.4,8.7-17.7L276.9,164C274,156.7,265.5,153.4,258.4,156.9z M243.7,192.4c-1.7-4.5,0.5-9.5,4.9-11.2
											c4.5-1.7,9.5,0.5,11.2,4.9c1.7,4.5-0.4,9.5-4.9,11.2C250.5,199,245.4,196.8,243.7,192.4z"/>
										<path class="st18" d="M258.4,156.9l-18.8,9.4c-6.2,3.1-9,10.4-6.4,16.8l9,23.1c2.5,6.4,9.5,9.9,16.1,8l20.2-5.8
											c7.6-2.2,11.6-10.4,8.7-17.7L276.9,164C274,156.7,265.5,153.4,258.4,156.9z M243.7,192.4c-1.7-4.5,0.5-9.5,4.9-11.2
											c4.5-1.7,9.5,0.5,11.2,4.9c1.7,4.5-0.4,9.5-4.9,11.2C250.5,199,245.4,196.8,243.7,192.4z"/>
										<g>
											<path class="st8" d="M351.6,148l-0.6,1l-0.3,0.6l-0.9,1.7l0.4,4.2c0,0.2,0,0.4-0.1,0.5c-0.1,0.4-0.4,0.7-0.8,0.8
												l-7.9,3.1c-0.4,0.1-0.8,0.1-1.1-0.1c-0.1-0.1-0.2-0.1-0.3-0.2l-4.5-4.5l0,0l-6.4,2.5l0.9,2.3l-6.4,2.5l1.5,3.9l-4.7,1.8
												c-0.4,0.1-0.8,0.1-1.2-0.1c-0.1-0.1-0.2-0.1-0.3-0.2l-2.7-2.5l-6.4,2.5l1.5,3.9l-6.7,2.6l1.5,3.9
												c0.2,0.6-0.1,1.3-0.7,1.6l-18.3,7.2l-7.9-20.2l66.2-25.9l1,0.5l3.4,1.7C351.9,144,352.6,146.2,351.6,148z"/>
										</g>
										<g class="st19">
											<path class="st10" d="M351.6,148l-0.6,1l-0.3,0.6l-0.9,1.7l0.4,4.2c0,0.2,0,0.4-0.1,0.5c-0.1,0.4-0.4,0.7-0.8,0.8
												l-7.9,3.1c-0.4,0.1-0.8,0.1-1.1-0.1c-0.1-0.1-0.2-0.1-0.3-0.2l-4.5-4.5l0,0l-6.4,2.5l0.9,2.3l-6.4,2.5l1.5,3.9l-4.7,1.8
												c-0.4,0.1-0.8,0.1-1.2-0.1c-0.1-0.1-0.2-0.1-0.3-0.2l-2.7-2.5l-6.4,2.5l1.5,3.9l-6.7,2.6l1.5,3.9
												c0.2,0.6-0.1,1.3-0.7,1.6l-18.3,7.2l-7.9-20.2l66.2-25.9l1,0.5l3.4,1.7C351.9,144,352.6,146.2,351.6,148z"/>
										</g>
									</g>
									<path class="st8" d="M351.4,145.7l-70.8,27.7l-2.1-5.2l67.5-26.4l3.4,1.7C350.6,144.2,351.4,144.8,351.4,145.7z"/>
									<path class="st19" d="M351.4,145.7l-70.8,27.7l-2.1-5.2l67.5-26.4l3.4,1.7C350.6,144.2,351.4,144.8,351.4,145.7z"/>
									<path class="st8" d="M350,149.6l-0.7,1.5c0,0,0,0.1,0,0.1l0.4,4.2c0,0.2,0,0.3,0,0.4c0,0,0,0.1-0.1,0.1l-8.6,3.4
										c0,0-0.1,0-0.1,0c-0.1-0.1-0.2-0.1-0.2-0.2l-4.9-4.9c0,0-0.1-0.1-0.2,0l-7,2.7c-0.1,0-0.1,0.1-0.1,0.2l0.8,2.1
										c0,0.1,0,0.2-0.1,0.2l-5.9,2.3c-0.1,0-0.1,0.1-0.1,0.2l1.4,3.6c0,0.1,0,0.2-0.1,0.2l-4.4,1.7c0,0-0.1,0-0.1,0
										c-0.1-0.1-0.2-0.1-0.3-0.2l-3.2-2.9c0,0-0.1-0.1-0.2,0l-6.9,2.7c-0.1,0-0.1,0.1-0.1,0.2l1.5,3.7c0,0.1,0,0.2-0.1,0.2
										l-26.6,10.5c-0.1,0-0.2,0-0.2-0.1l-2.7-6.7c0-0.1,0-0.2,0.1-0.2l69.3-27.3c0.1-0.1,0.3,0.1,0.2,0.2L350,149.6z"/>
									<path class="st19" d="M350,149.6l-0.7,1.5c0,0,0,0.1,0,0.1l0.4,4.2c0,0.2,0,0.3,0,0.4c0,0,0,0.1-0.1,0.1l-8.6,3.4
										c0,0-0.1,0-0.1,0c-0.1-0.1-0.2-0.1-0.2-0.2l-4.9-4.9c0,0-0.1-0.1-0.2,0l-7,2.7c-0.1,0-0.1,0.1-0.1,0.2l0.8,2.1
										c0,0.1,0,0.2-0.1,0.2l-5.9,2.3c-0.1,0-0.1,0.1-0.1,0.2l1.4,3.6c0,0.1,0,0.2-0.1,0.2l-4.4,1.7c0,0-0.1,0-0.1,0
										c-0.1-0.1-0.2-0.1-0.3-0.2l-3.2-2.9c0,0-0.1-0.1-0.2,0l-6.9,2.7c-0.1,0-0.1,0.1-0.1,0.2l1.5,3.7c0,0.1,0,0.2-0.1,0.2
										l-26.6,10.5c-0.1,0-0.2,0-0.2-0.1l-2.7-6.7c0-0.1,0-0.2,0.1-0.2l69.3-27.3c0.1-0.1,0.3,0.1,0.2,0.2L350,149.6z"/>
									<line class="st18" x1="310.7" y1="171.3" x2="284.1" y2="181.7"/>
								</g>
								<path class="st14" d="M248.1,179c-5.6,2.2-8.3,8.5-6.2,14.1c2.2,5.6,8.5,8.3,14.1,6.2c5.6-2.2,8.3-8.5,6.2-14.1
									C260,179.5,253.7,176.8,248.1,179z M254.9,197.3c-4.5,1.7-9.5-0.5-11.2-4.9c-1.7-4.5,0.5-9.5,4.9-11.2
									c4.5-1.7,9.5,0.5,11.2,4.9C261.6,190.5,259.4,195.5,254.9,197.3z"/>
							</g>
							<g>
								<path class="st17" d="M287.2,204.7c-0.8,1.1-1.7,2-2.8,2.8l-35.9-47.6l0,0c0,0,3.2-1.6,3.9-2.1c0,0,0,0.1,0,0.1
									C254,161.3,282.2,198,287.2,204.7z"/>
								<path class="st17" d="M282,209c-0.2,0.1-10.7,3.3-10.7,3.3l-11.7-15.5c3-3,4.1-7.5,2.5-11.7c-2.2-5.6-8.5-8.4-14.1-6.2
									c-0.5,0.2-1,0.4-1.4,0.7L236.4,166c0,0,9.1-4.3,10.1-5C246.7,162.9,282,208.6,282,209z"/>
							</g>
						</g>
					</g>
					<path class="st7" d="M239.2,133.9c-1.2,1.4-1.6,3.3-1.3,5.1c0.4,1.8,1.6,3.3,3.3,4.1c0.9,0.4,1.8,0.6,2.6,1
						c0.8,0.4,1.6,1.1,1.7,2.1c0.1,1-0.7,2-0.6,3c0.1,0.9,0.8,1.7,1.6,2.3c0.8,0.6,1.6,1.1,2,2c0.4,0.9,0.1,2.1-0.8,2.4
						c-0.2,0.3-0.3,1,0,1.3c0.2,0.3,0.7,0.3,1,0.1c1.4-0.9,2.4-2.5,2.4-4.2c0-1.7-1-3.3-2.5-4c-0.3-0.6-0.1-1.2,0.2-1.8
						c0.5-1.1,0.9-2.3,1.4-3.4c0.2-0.4,0-1.3-0.3-1.6c-0.3-0.4-0.8-0.6-1.2-0.8l-2.9-1.3c-1.1-0.5-4.4-4.9-0.5-6.2
						c-0.5-1.1-1.4-1.5-2.6-1.7S240,133,239.2,133.9z"/>
				</g>
				<g>
					<path class="st7" d="M244.5,129.2c-0.1,1.2-0.2,2.3-0.3,3.5c1-1.6,2.8-4.7,2.7-4.6C246.2,128.5,245.3,128.8,244.5,129.2z"/>
				</g>
				<g>
					<path class="st7" d="M245.9,131.1c1.4-1.3,2.7-2.5,4.1-3.8c-1.1-0.4-2.3-0.1-3.1,0.7C246.9,127.9,246.2,129.9,245.9,131.1z"/>
				</g>
			</g>
			<path class="st7" d="M237.5,225.7c-5.3,6.6-3.6,11.7-10.9,23.4c9.3,6.9,19.5,8,32.1,7c1.5-2.6,2.3-5.4,3.7-8.1
				c2.1,2.7,3.9,4.9,6,7.6c6.6-1,14.5-2.9,19.8-6.3c-4.6-5.3-7.5-11.9-10.5-17.8c-1.4-2.7-0.8-3.9-4.5-7.5
				c-11.7,0.5-23.4,0.8-35.1,1.4C238.4,225.5,237.2,225.7,237.5,225.7z"/>
			<g>
				<g>
					<path class="st8" d="M239,224.6l-0.7,3.1c-0.1,0.2,0.2,0.5,0.6,0.5l32.4-1.4c0.3,0,0.6-0.2,0.6-0.4l0.2-3.1
						c0-0.2-0.3-0.4-0.6-0.4l-31.8,1.4C239.3,224.3,239.1,224.4,239,224.6z"/>
					<path class="st8" d="M239,224.6l-0.7,3.1c-0.1,0.2,0.2,0.5,0.6,0.5l32.4-1.4c0.3,0,0.6-0.2,0.6-0.4l0.2-3.1
						c0-0.2-0.3-0.4-0.6-0.4l-31.8,1.4C239.3,224.3,239.1,224.4,239,224.6z"/>
				</g>
				<g>
					<path class="st7" d="M246.1,228.1l-0.9,0c-0.2,0-0.3-0.1-0.3-0.2l0.3-4c0-0.1,0.2-0.2,0.4-0.2l0.9-0.1c0.2,0,0.3,0.1,0.3,0.2
						l-0.3,4C246.5,228,246.3,228.1,246.1,228.1z"/>
					<path class="st7" d="M269.5,227.1l-0.9,0c-0.2,0-0.3-0.1-0.3-0.2l0.3-4c0-0.1,0.2-0.2,0.3-0.2l0.9,0c0.2,0,0.3,0.1,0.3,0.2
						l-0.3,4C269.8,227,269.7,227.1,269.5,227.1z"/>
				</g>
			</g>
		</g>
		<g>
			<g>
				<g>
					<path class="st13" d="M250.3,208.7c0.1,0.3,2.6,4.3,4.5,4c0,0,0,0,0,0c0.6-0.1,1.1,0.2,1.5,0.6c0.8,1,1.3,1.6,1.8,2.3
						c0.9,1.1,2.4,1.5,3.6,0.9c0.4-0.2,0.7-0.4,1.1-0.6c1.2-0.6,1.8-2,1.5-3.4c-0.4-1.5-0.9-2.9-1.7-4.2c-0.3-0.4-0.6-0.9-1-1.2
						c-0.4-0.3-4.8-1.6-6.5-1.5C253.6,205.7,251.9,208,250.3,208.7z"/>
				</g>
				<g>
					<path class="st13" d="M255.4,205.5c0,0-26.6-8-32.3-2.7c-3.4,3.2-1.8,6.1,0.1,8c1.4,1.4,4.5,1.1,6.5,1l20.9-2.1L255.4,205.5z"
						/>
				</g>
			</g>
			<path class="st7" d="M240.1,201.9c-0.1-1.4-1.3-2.6-2.6-3.3c-1.3-0.6-2.8-0.8-4.2-1c-3.3-0.4-6.7-0.8-10-1.3
				c-1.7,2.1-2.9,5.1-2.9,7.8c0.1,2.7,1.1,5.4,2.9,7.5c1.6-3.1,3.7-6.3,6.8-7.8C233.3,202.3,236.7,201.2,240.1,201.9z"/>
		</g>
	</g>
	<path class="st17" d="M233.3,153.3c0-0.1,0-0.1,0-0.1C233.5,153.1,233.4,153.2,233.3,153.3z"/>
</g>
<g id="Speech_Bubble">
	<g>
		<path class="st8" d="M299.3,110.3l7.4,13.7l30.2-25.7c0.3-0.2,0-0.6-0.3-0.4l-28.3,18.7l-4.4-8.5L299.3,110.3z"/>
		<path class="st20" d="M347,110.3c0,12.2-12.8,22.2-28.7,22.2c-6.1,0-11.7-1.5-16.4-4l-16.8,7.3l10.6-11.8
			c-3.8-3.8-6.1-8.5-6.1-13.7c0-12.2,12.8-22.2,28.7-22.2C334.1,88.2,347,98.1,347,110.3z"/>
	</g>
</g>
</svg>
