<?xml version="1.0" encoding="utf-8"?>
<!-- Generator: Adobe Illustrator 22.1.0, SVG Export Plug-In . SVG Version: 6.00 Build 0)  -->
<svg version="1.1" xmlns="http://www.w3.org/2000/svg" xmlns:xlink="http://www.w3.org/1999/xlink" x="0px" y="0px"
	 viewBox="0 0 500 500" style="enable-background:new 0 0 500 500;" xml:space="preserve">
<style type="text/css">
	.st0{fill:#EBEBEB;}
	.st1{fill:#E6E6E6;}
	.st2{fill:#F0F0F0;}
	.st3{fill:#FFFFFF;}
	.st4{fill:#FAFAFA;}
	.st5{opacity:0.6;fill:#EBEBEB;}
	.st6{fill:#E0E0E0;}
	.st7{fill:#F5F5F5;}
	.st8{display:none;}
	.st9{display:inline;}
	.st10{fill:#407BFF;}
	.st11{opacity:0.9;fill:#FFFFFF;}
	.st12{opacity:0.7;fill:#FFFFFF;}
	.st13{opacity:0.8;}
	.st14{opacity:0.8;fill:#407BFF;}
	.st15{opacity:0.3;fill:#407BFF;}
	.st16{fill:#FFB573;}
	.st17{fill:#263238;}
	.st18{opacity:0.3;fill:#FFFFFF;}
	.st19{fill:#ED893E;}
	.st20{opacity:0.2;}
	.st21{opacity:0.5;}
</style>
<g id="Background_Complete">
	<g>
		<g>
			<rect y="382.4" class="st0" width="500" height="0.3"/>
			<path class="st0" d="M237,337.8H43.9c-3.1,0-5.7-2.6-5.7-5.7V60.7c0-3.1,2.6-5.7,5.7-5.7H237c3.1,0,5.7,2.6,5.7,5.7v271.4
				C242.7,335.2,240.2,337.8,237,337.8z M43.9,55.2c-3,0-5.5,2.4-5.5,5.5v271.4c0,3,2.4,5.5,5.5,5.5H237c3,0,5.5-2.4,5.5-5.5V60.7
				c0-3-2.4-5.5-5.5-5.5H43.9z"/>
			<path class="st0" d="M453.3,337.8H260.2c-3.1,0-5.7-2.6-5.7-5.7V60.7c0-3.1,2.6-5.7,5.7-5.7h193.1c3.1,0,5.7,2.6,5.7,5.7v271.4
				C459,335.2,456.5,337.8,453.3,337.8z M260.2,55.2c-3,0-5.5,2.4-5.5,5.5v271.4c0,3,2.4,5.5,5.5,5.5h193.1c3,0,5.5-2.4,5.5-5.5
				V60.7c0-3-2.4-5.5-5.5-5.5H260.2z"/>
		</g>
		<g>
			<rect x="51.3" y="391.9" class="st0" width="26" height="0.3"/>
			<rect x="145.2" y="389.2" class="st0" width="45" height="0.3"/>
			<rect x="78.3" y="401.2" class="st0" width="60.8" height="0.3"/>
			<rect x="429.5" y="399.5" class="st0" width="19.2" height="0.3"/>
			<rect x="365.3" y="399.5" class="st0" width="55.3" height="0.3"/>
			<rect x="257" y="395.3" class="st0" width="74.5" height="0.3"/>
		</g>
	</g>
	<g>
		<g>
			<g>
				<polygon class="st1" points="169.6,295.7 115.1,295.7 111.7,257.4 166.3,257.4 				"/>
				<polygon class="st2" points="172.5,295.7 117.9,295.7 114.6,257.4 169.2,257.4 				"/>
				<polygon class="st3" points="125.3,287.5 123.5,265.7 161.7,265.7 163.5,287.5 				"/>
			</g>
			<g>
				<rect x="196.8" y="295.7" class="st1" width="7.8" height="86.7"/>
				<rect x="201.7" y="295.7" class="st2" width="5.4" height="86.7"/>
				
					<rect x="131.7" y="295.7" transform="matrix(-1 -1.224647e-16 1.224647e-16 -1 338.7201 600.906)" class="st2" width="75.4" height="9.6"/>
				<rect x="126.5" y="305.2" class="st1" width="7.8" height="77.2"/>
				<rect x="131.4" y="305.2" class="st2" width="5.4" height="77.2"/>
				<rect x="71.1" y="305.2" class="st1" width="7.8" height="77.2"/>
				<rect x="75.9" y="305.2" class="st2" width="5.4" height="77.2"/>
				<rect x="147.5" y="305.2" class="st1" width="7.8" height="77.2"/>
				<rect x="152.4" y="305.2" class="st2" width="5.4" height="77.2"/>
				<rect x="71.1" y="295.7" class="st1" width="60.6" height="9.6"/>
			</g>
		</g>
		<g>
			<rect x="69" y="82.4" class="st1" width="226.2" height="129.8"/>
			<rect x="71.8" y="82.4" class="st2" width="229.4" height="129.8"/>
			<rect x="69" y="212.2" class="st1" width="226.2" height="11.2"/>
			<rect x="81.9" y="212.2" class="st2" width="229.4" height="11.2"/>
			
				<rect x="130.1" y="41" transform="matrix(-1.836970e-16 1 -1 -1.836970e-16 333.8628 -39.2491)" class="st4" width="112.8" height="212.5"/>
			<polygon class="st3" points="95.9,203.7 145.6,90.9 169,90.9 119.4,203.7 			"/>
			<path class="st2" d="M84.2,195.3c-0.3,0-0.6-0.3-0.6-0.6V96.4c0-0.3,0.3-0.6,0.6-0.6s0.6,0.3,0.6,0.6v98.3
				C84.8,195,84.5,195.3,84.2,195.3z"/>
			<polygon class="st3" points="124.4,203.7 174.1,90.9 183.2,90.9 133.5,203.7 			"/>
			
				<rect x="235.9" y="146.8" transform="matrix(-1.836970e-16 1 -1 -1.836970e-16 439.5847 -144.9709)" class="st1" width="112.8" height="1.1"/>
			<polygon class="st5" points="303.3,103.6 77.1,103.6 76.3,94.2 302.5,94.2 			"/>
			<polygon class="st5" points="303.3,119.2 77.1,119.2 76.3,109.7 302.5,109.7 			"/>
			<polygon class="st5" points="303.3,134.7 77.1,134.7 76.3,125.2 302.5,125.2 			"/>
			<polygon class="st5" points="303.3,150.3 77.1,150.3 76.3,140.8 302.5,140.8 			"/>
			<polygon class="st5" points="303.3,165.8 77.1,165.8 76.3,156.3 302.5,156.3 			"/>
			<polygon class="st5" points="303.3,181.3 77.1,181.3 76.3,171.9 302.5,171.9 			"/>
		</g>
		<g>
			<g>
				
					<rect x="365.4" y="82.4" transform="matrix(-1 -1.224647e-16 1.224647e-16 -1 791.7611 225.7513)" class="st0" width="60.9" height="60.9"/>
				<rect x="362.7" y="82.4" class="st6" width="2.7" height="60.9"/>
				
					<rect x="373.7" y="90.7" transform="matrix(-1 -1.224647e-16 1.224647e-16 -1 791.761 225.7513)" class="st3" width="44.4" height="44.4"/>
				
					<rect x="385.4" y="102.4" transform="matrix(-0.7071 0.7071 -0.7071 -0.7071 755.6254 -87.239)" class="st7" width="21" height="21"/>
			</g>
			<g>
				
					<rect x="344.4" y="162.5" transform="matrix(-1 -1.224647e-16 1.224647e-16 -1 749.7795 385.9495)" class="st0" width="60.9" height="60.9"/>
				<rect x="341.7" y="162.5" class="st6" width="2.7" height="60.9"/>
				
					<rect x="352.7" y="170.8" transform="matrix(-1 -1.224647e-16 1.224647e-16 -1 749.7795 385.9495)" class="st3" width="44.4" height="44.4"/>
				<path class="st7" d="M371.7,202.4h6.3c3.5,0,6.3-2.8,6.3-6.3v-6.3c0-3.5-2.8-6.3-6.3-6.3h-6.3c-3.5,0-6.3,2.8-6.3,6.3v6.3
					C365.4,199.6,368.2,202.4,371.7,202.4z"/>
			</g>
		</g>
		<g>
			<g>
				<rect x="292.5" y="253" class="st2" width="15.2" height="125.3"/>
				<rect x="294.6" y="378.3" class="st2" width="145.9" height="4.1"/>
				
					<rect x="307.7" y="253" transform="matrix(-1 -1.224647e-16 1.224647e-16 -1 750.3285 631.3444)" class="st4" width="134.9" height="125.3"/>
				<path class="st2" d="M416.2,326.2h-82.1c-8.1,0-14.6-6.6-14.6-14.6s6.6-14.6,14.6-14.6h82.1c8.1,0,14.6,6.6,14.6,14.6
					S424.3,326.2,416.2,326.2z M334.1,298c-7.5,0-13.6,6.1-13.6,13.6c0,7.5,6.1,13.6,13.6,13.6h82.1c7.5,0,13.6-6.1,13.6-13.6
					c0-7.5-6.1-13.6-13.6-13.6H334.1z"/>
				<path class="st2" d="M416.2,362.6h-82.1c-8.1,0-14.6-6.6-14.6-14.6s6.6-14.6,14.6-14.6h82.1c8.1,0,14.6,6.6,14.6,14.6
					S424.3,362.6,416.2,362.6z M334.1,334.3c-7.5,0-13.6,6.1-13.6,13.6c0,7.5,6.1,13.6,13.6,13.6h82.1c7.5,0,13.6-6.1,13.6-13.6
					c0-7.5-6.1-13.6-13.6-13.6H334.1z"/>
				<path class="st0" d="M387.5,308.5h-24.8c-1.7,0-3-1.4-3-3l0,0c0-1.7,1.4-3,3-3h24.8c1.7,0,3,1.4,3,3l0,0
					C390.6,307.1,389.2,308.5,387.5,308.5z"/>
				<path class="st2" d="M416.2,289.9h-82.1c-8.1,0-14.6-6.6-14.6-14.6c0-8.1,6.6-14.6,14.6-14.6h82.1c8.1,0,14.6,6.6,14.6,14.6
					C430.8,283.3,424.3,289.9,416.2,289.9z M334.1,261.7c-7.5,0-13.6,6.1-13.6,13.6c0,7.5,6.1,13.6,13.6,13.6h82.1
					c7.5,0,13.6-6.1,13.6-13.6c0-7.5-6.1-13.6-13.6-13.6H334.1z"/>
				<path class="st0" d="M387.5,272.1h-24.8c-1.7,0-3-1.4-3-3l0,0c0-1.7,1.4-3,3-3h24.8c1.7,0,3,1.4,3,3l0,0
					C390.6,270.8,389.2,272.1,387.5,272.1z"/>
				<path class="st0" d="M387.5,344.8h-24.8c-1.7,0-3-1.4-3-3l0,0c0-1.7,1.4-3,3-3h24.8c1.7,0,3,1.4,3,3l0,0
					C390.6,343.5,389.2,344.8,387.5,344.8z"/>
			</g>
			<rect x="307.7" y="246.7" class="st2" width="137.7" height="6.4"/>
			
				<rect x="289.6" y="246.7" transform="matrix(-1 -1.224647e-16 1.224647e-16 -1 597.2828 499.7013)" class="st1" width="18.2" height="6.4"/>
		</g>
	</g>
</g>
<g id="Background_Simple" class="st8">
	<g class="st9">
		<path class="st10" d="M226.4,332.3c87.4,14.2,194.1,4.8,214.5-94.9c18.5-90.5-64.8-166.1-158.2-137
			c-40.3,12.6-59.1,51.1-102.4,57.7c-43.3,6.5-98.2-9.3-115.9,46.3C37.1,290.4,168.9,323,226.4,332.3z"/>
		<path class="st11" d="M226.4,332.3c87.4,14.2,194.1,4.8,214.5-94.9c18.5-90.5-64.8-166.1-158.2-137
			c-40.3,12.6-59.1,51.1-102.4,57.7c-43.3,6.5-98.2-9.3-115.9,46.3C37.1,290.4,168.9,323,226.4,332.3z"/>
	</g>
</g>
<g id="Shadow_1_">
	<ellipse id="_x3C_Path_x3E__212_" class="st7" cx="250" cy="416.2" rx="193.9" ry="11.3"/>
</g>
<g id="Terms_and_Conditions">
	<g>
		<g>
			<path class="st10" d="M413.6,148.2H262.9c0,0-27.2,25-27.2,85.8c0,52.3,20.6,123.1,12.9,152.2c-5.8,21.9-34.1,25.6-47.6,26.2
				h143.5c0,0,47.2,2.8,54.9-26.2c7.7-29-12.9-99.9-12.9-152.2C386.5,173.2,413.6,148.2,413.6,148.2z"/>
			<path class="st12" d="M413.6,148.2H262.9c0,0-27.2,25-27.2,85.8c0,52.3,20.6,123.1,12.9,152.2c-5.8,21.9-34.1,25.6-47.6,26.2
				h143.5c0,0,47.2,2.8,54.9-26.2c7.7-29-12.9-99.9-12.9-152.2C386.5,173.2,413.6,148.2,413.6,148.2z"/>
		</g>
		<g class="st13">
			<path class="st14" d="M372.6,212.3H252.1c3.4-26.7,12.6-42.3,17.7-49.1H386C380.3,175.1,374.9,191.3,372.6,212.3z"/>
			<path class="st15" d="M371.6,226.5H250.9c0.1-2.4,0.2-4.8,0.4-7.1H372C371.8,221.7,371.7,224.1,371.6,226.5z"/>
			<path class="st15" d="M288.8,240.7h-37.9c-0.1-2.3-0.1-4.5-0.1-6.7v-0.4h37.9v0.4C288.7,236.2,288.7,238.4,288.8,240.7z"/>
			<path class="st15" d="M372.4,254.9H251.7c-0.2-2.4-0.4-4.7-0.5-7.1h120.7C372,250.1,372.2,252.5,372.4,254.9z"/>
			<path class="st15" d="M373.7,269H253.2c-0.3-2.4-0.5-4.7-0.8-7.1H373C373.2,264.3,373.4,266.7,373.7,269z"/>
			<path class="st15" d="M375.4,283.2H255c-0.3-2.4-0.6-4.7-0.9-7.1h120.5C374.8,278.5,375.1,280.8,375.4,283.2z"/>
			<path class="st15" d="M377.4,297.4H257c-0.4-2.4-0.7-4.7-1-7.1h120.4C376.7,292.7,377.1,295,377.4,297.4z"/>
			<path class="st15" d="M379.5,311.5H259.2c-0.2-1.3-0.4-2.6-0.6-3.9c-0.2-1-0.3-2.1-0.5-3.2h120.4
				C378.8,306.8,379.2,309.2,379.5,311.5z"/>
			<path class="st15" d="M261.3,325.7c-0.3-2.3-0.7-4.7-1-7.1h120.4c0.4,2.4,0.7,4.7,1.1,7.1H261.3z"/>
			<path class="st15" d="M263.2,339.9c-0.3-2.3-0.6-4.7-0.9-7.1h100.4c0.3,2.4,0.7,4.7,1,7.1H263.2z"/>
			<path class="st15" d="M264.7,354.1c-0.2-2.3-0.4-4.7-0.7-7.1h120.5c0.3,2.4,0.5,4.8,0.7,7.1H264.7z"/>
			<path class="st15" d="M265.4,368.2c0-2.3-0.1-4.6-0.2-7.1h63.6c0.2,2.5,0.3,4.8,0.3,7.1H265.4z"/>
		</g>
		<path class="st10" d="M356,404.7c-7.7,1.4-15.4,0.3-23.1,0c-3.7-0.2-7.4-0.2-11.1,0.3c-3.6,0.5-7.2,1.4-10.8,1.1
			c1.2-0.6,2.3-1.4,3.4-2.3c0.2-0.2,0.1-0.5-0.2-0.6c-11.3-4-21.6,6.8-32.8,4.3c3.2-2.4,7.7-2.4,10.4-5.5c0.2-0.2,0.1-0.6-0.3-0.6
			c-10.1-0.2-19.6,3.7-29.5,4.6c-0.5,0-0.5,0.8,0,0.8c9.7-0.8,18.9-4.5,28.6-4.6c-2.9,2.6-7.3,2.7-10.3,5.3
			c-0.2,0.2-0.1,0.6,0.2,0.6c11.3,3.1,21.7-7.7,32.9-4.3c-1.2,0.9-2.4,1.7-3.8,2.3c-0.3,0.1-0.2,0.6,0.1,0.7
			c3.7,0.6,7.3-0.2,10.9-0.7c4.1-0.6,8.2-0.7,12.3-0.5c7.8,0.4,15.6,1.4,23.3,0C356.7,405.3,356.5,404.6,356,404.7z"/>
	</g>
</g>
<g id="Character">
	<g>
		<g>
			<path class="st16" d="M151.9,185.1c0.6,0.8,1.4,1.8,2.2,2.6c0.8,0.9,1.5,1.8,2.4,2.6c1.6,1.7,3.2,3.4,5,5c3.4,3.1,7.1,5.9,11,7.7
				c0.5,0.2,1,0.4,1.4,0.6c0.3,0.1,0.5,0.2,0.7,0.2c0.2,0.1,0.4,0.1,0.7,0.2c0.9,0.2,1.9,0.4,2.9,0.5c2.1,0.1,4.3,0,6.6-0.4
				c2.3-0.3,4.6-0.9,6.9-1.5c2.3-0.6,4.6-1.3,6.8-2.1l2,4c-4.5,2.8-9.1,4.9-14.3,6.4c-2.6,0.7-5.3,1.2-8.2,1.3c-1.4,0-2.9,0-4.5-0.3
				c-0.4-0.1-0.8-0.1-1.2-0.2c-0.4-0.1-0.8-0.2-1.1-0.3c-0.7-0.2-1.4-0.4-2-0.7c-5.3-2.1-9.8-5.2-13.8-8.7c-2-1.7-3.9-3.5-5.7-5.5
				c-0.9-1-1.8-1.9-2.6-2.9c-0.9-1-1.6-2-2.5-3.1L151.9,185.1z"/>
			<path class="st10" d="M141.7,182.3c-0.2,5.6,2,15.7,2,15.7l13.9-1.7c0,0,0.5-14.8-2.2-18.3C150.8,172,141.9,177,141.7,182.3z"/>
			<path class="st16" d="M196.6,202.1l6.5-5.9l0.8,6.4c0,0-2.7,3.6-5.7,2.1L196.6,202.1z"/>
			<polygon class="st16" points="206.4,196.5 209.1,200.1 203.9,202.5 203.1,196.1 			"/>
			<g>
				<path class="st17" d="M204.7,180.3c0.7,0,1.1,0,1.6,0c0.3,0,0.5,0,0.6,0l0.5,0.1c0.6,0.1,1,0.3,1.2,0.5c0.2,0.2,0.3,0.5,0.3,0.7
					l0.2,0.8l0.9,3l1.9,6.1l3.7,12.1c2.5,8.1,5,16.2,7.4,24.3c4.9,16.2,9.4,32.5,14,48.8c4.5,16.3,8.7,32.7,13.1,49
					c4.4,16.3,8.3,32.8,9.7,49.9c0.2,2.7-1.8,5.1-4.5,5.3c-2.1,0.2-4.1-1-4.9-2.9c-7.1-15.6-11.7-31.9-15.8-48.3
					c-4.1-16.4-8.4-32.8-12.4-49.2c-4-16.4-7.9-32.9-11.5-49.4c-1.9-8.3-3.6-16.5-5.4-24.8l-2.7-12.4l-1.3-6.2l-0.7-3.1l-0.2-0.8
					c0-0.3-0.2-0.5-0.1-0.8c0.1-0.3,0.4-0.6,0.8-1l0.4-0.3c0.1-0.1,0.3-0.2,0.5-0.3c0.4-0.2,0.7-0.5,1.4-0.8
					C204,180.4,204.4,180.3,204.7,180.3z"/>
				<g>
					<path class="st10" d="M258.9,378.2c-0.2-0.6-0.7-0.9-1.3-0.8l-2.2,0.6l-2.2,0.6c-0.6,0.1-0.9,0.7-0.8,1.3
						c1.4,6.3,0,10.8,1.5,16.3c1.5,5.8,8.1,8.8,8.1,8.8l-0.2-2.5l1,2.3c0,0,4.3-5.8,2.8-11.6C264.1,387.6,260.7,384.3,258.9,378.2z"
						/>
					<path class="st18" d="M258.9,378.2c-0.2-0.6-0.7-0.9-1.3-0.8l-2.2,0.6l-2.2,0.6c-0.6,0.1-0.9,0.7-0.8,1.3
						c1.4,6.3,0,10.8,1.5,16.3c1.5,5.8,8.1,8.8,8.1,8.8l-0.2-2.5l1,2.3c0,0,4.3-5.8,2.8-11.6C264.1,387.6,260.7,384.3,258.9,378.2z"
						/>
				</g>
				<path class="st17" d="M260.6,392.6c0.2,0.7-0.3,1.5-1,1.7c-0.7,0.2-1.5-0.3-1.7-1c-0.2-0.7,0.3-1.5,1-1.7
					C259.6,391.4,260.4,391.9,260.6,392.6z"/>
				<path class="st17" d="M261.8,402.8c-0.2,0-0.3-0.1-0.4-0.2l-2.5-9.6c0-0.2,0.1-0.3,0.2-0.4c0.2,0,0.3,0.1,0.4,0.2l2.5,9.6
					C262.1,402.6,262,402.8,261.8,402.8z"/>
				<path class="st10" d="M253.7,343.8l-13.5,3.5c-0.8,0.2-1.6-0.3-1.8-1l0,0c-0.2-0.8,0.3-1.6,1-1.8L253,341c0.8-0.2,1.6,0.3,1.8,1
					l0,0C254.9,342.8,254.5,343.6,253.7,343.8z"/>
			</g>
			<path class="st17" d="M185.3,160.8c-0.2,0.6-0.1,1.2,0.3,1.4c0.4,0.2,0.9-0.2,1.1-0.8c0.2-0.6,0.1-1.2-0.3-1.4
				C186,159.9,185.5,160.2,185.3,160.8z"/>
			<path class="st17" d="M186.2,160l1.6,0.2C187.8,160.2,186.7,161,186.2,160z"/>
			<path class="st19" d="M185.5,161.6c0,0,0,3,0.6,4.8c-1.1,0.4-2.3-0.5-2.3-0.5L185.5,161.6z"/>
			<path class="st17" d="M187.7,157.1c-0.1,0-0.1,0-0.2-0.1c-1.3-1.1-2.7-0.8-2.7-0.8c-0.2,0.1-0.4-0.1-0.5-0.3
				c-0.1-0.2,0.1-0.4,0.3-0.5c0.1,0,1.8-0.5,3.4,0.9c0.2,0.1,0.2,0.4,0,0.5C188,157.1,187.8,157.2,187.7,157.1z"/>
			<path class="st16" d="M164.1,160.5c0.4,4.9-1.2,12.8-4.9,15.6c0,0,2.8,5.1,11.6,6.3c9.8,1.3,5.2-4.2,5.2-4.2
				c-5.2-2-4.6-5.9-3.3-9.4L164.1,160.5z"/>
			<path class="st16" d="M190.6,186.5c0.8,4.5,1.7,9.3,2.7,13.8c0.5,2.3,1.1,4.6,1.7,6.8c0.6,2.3,1.2,4.5,1.9,6.7
				c0.4,1.1,0.7,2.2,1.1,3.3l0.6,1.6l0.1,0.4l0,0.1c0,0.1,0,0.1,0.1,0.2c0.1,0.2,0.3,0.5,0.9,0.7c0.6,0.2,1.5,0.4,2.5,0.5
				c1.9,0.1,4.2-0.1,6.4-0.5c2.2-0.4,4.5-0.9,6.7-1.5l1.8,4.1c-1.1,0.7-2.2,1.2-3.4,1.8c-1.1,0.6-2.3,1.1-3.5,1.5
				c-2.4,0.9-5,1.6-7.9,1.9c-1.4,0.1-3,0.1-4.7-0.3c-1.7-0.4-3.7-1.3-5.1-3.1c-0.4-0.4-0.7-0.9-0.9-1.3c-0.1-0.2-0.2-0.5-0.4-0.7
				l-0.2-0.4l-0.8-1.8c-0.5-1.2-1-2.3-1.4-3.5c-0.9-2.4-1.7-4.7-2.4-7.1c-0.7-2.4-1.3-4.8-2-7.2c-1.2-4.8-2.2-9.6-2.9-14.6
				L190.6,186.5z"/>
			<path class="st16" d="M214.4,218.8l3.9-3.1l1.7,5.9c0,0-5.3,3.8-6.7-0.7L214.4,218.8z"/>
			<polygon class="st16" points="221.8,216.8 223.2,221.2 220,221.7 218.3,215.8 			"/>
			<polygon class="st16" points="149.7,407.4 157.7,408 160.1,389.5 152.1,388.9 			"/>
			<polygon class="st16" points="98,383.9 105,388.1 116.6,373.6 109.6,369.3 			"/>
			<path class="st10" d="M109.9,390.3c-0.1,0-0.2,0-0.3,0c-1,0-2.2-1.6-2.8-2.5c0-0.1,0-0.1,0-0.2c0-0.1,0.1-0.1,0.2-0.1
				c0.3,0.1,3.2,0.7,3.6,1.6c0.1,0.2,0.1,0.4-0.1,0.6C110.3,390,110.1,390.2,109.9,390.3z M107.4,388c0.8,1.2,1.7,1.9,2.2,1.9
				c0.2,0,0.4-0.1,0.6-0.3c0.1-0.1,0.1-0.2,0.1-0.3C110,388.8,108.5,388.3,107.4,388z"/>
			<path class="st10" d="M109.4,387.8c-0.9,0.2-2,0.3-2.5,0.1c-0.1,0-0.1-0.1-0.1-0.1c0-0.1,0-0.1,0-0.2c0.1-0.1,1.7-1.7,2.8-1.6
				c0.3,0,0.6,0.1,0.8,0.4c0.3,0.4,0.2,0.7,0.1,0.8C110.3,387.4,109.9,387.6,109.4,387.8z M107.3,387.6c1,0.1,2.5-0.2,2.8-0.6
				c0.1-0.1,0.1-0.2-0.1-0.4c-0.1-0.2-0.3-0.2-0.5-0.2C108.9,386.3,107.9,387.1,107.3,387.6z"/>
			<path class="st17" d="M107.1,386.6l-6.6-6.4c-0.2-0.2-0.6-0.3-0.8-0.1l-5.7,4.4c-0.6,0.5-0.6,1.4,0,1.9c2.3,2.2,3.6,3.1,6.5,5.9
				c1.8,1.7,4.2,4.4,6.7,6.8c2.4,2.3,4.9,0.1,4.1-1.1c-3.7-5.4-3.1-7.5-3.5-10.2C107.7,387.4,107.4,386.9,107.1,386.6z"/>
			<path class="st10" d="M161.2,408.3c-0.9,0-1.9-0.2-2.5-0.3c-0.1,0-0.1-0.1-0.2-0.2c0-0.1,0-0.2,0.1-0.2c0.4-0.2,3.6-1.8,4.6-1.3
				c0.2,0.1,0.3,0.3,0.3,0.5c0,0.4-0.1,0.7-0.4,0.9C162.8,408.1,162,408.3,161.2,408.3z M159.3,407.7c1.8,0.3,3.1,0.2,3.6-0.2
				c0.2-0.2,0.3-0.4,0.2-0.6c0-0.1,0-0.2-0.1-0.2C162.5,406.4,160.7,407.1,159.3,407.7z"/>
			<path class="st10" d="M158.7,408c0,0-0.1,0-0.1,0c-0.1,0-0.1-0.1-0.1-0.2c0-0.1,0.4-3.4,2.2-3.4c0.1,0,0.1,0,0.2,0
				c0.5,0.1,0.7,0.3,0.7,0.5C161.8,405.8,159.8,407.5,158.7,408C158.8,408,158.8,408,158.7,408z M160.8,404.7
				c-1.2,0-1.6,1.9-1.8,2.7c1-0.6,2.3-2,2.2-2.5c0,0,0-0.2-0.4-0.2C160.8,404.7,160.8,404.7,160.8,404.7z"/>
			<path class="st17" d="M158.2,406.9h-9.1c-0.3,0-0.6,0.2-0.7,0.6l-1.2,7.2c-0.1,0.7,0.5,1.4,1.3,1.4c3.2-0.1,4.7-0.2,8.7-0.2
				c2.5,0,7.5,0.3,10.9,0.3c3.3,0,3.7-3.4,2.3-3.7c-6.3-1.4-8.7-3.2-10.8-5C159.2,407,158.7,406.9,158.2,406.9z"/>
			<g>
				<polygon class="st20" points="160.1,389.5 158.8,399.8 150.8,398.4 152.1,388.9 				"/>
				<polygon class="st20" points="109.6,369.4 116.6,373.6 111.8,379.6 104.7,375.5 				"/>
			</g>
			<path class="st10" d="M145.6,224.7c6.3,0.8,19.7,2.6,32.7,4.4c12.7-45.8,8.9-47.1,8.9-47.1c-1-0.6-3-1.2-4.4-1.7
				c-1.5-0.6-3.1-1.1-4.7-1.5c-3.1-0.9-6.3-1.7-9.6-2.2c-6.3-1.1-12.7-1.4-19-1.1c-1.2,0.1-2.5,0.8-3.2,1.8
				c-0.1,0.2-0.2,0.4-0.3,0.6c-0.4,0.8-0.5,1.6-0.4,2.4C148.3,204.4,147.4,212.3,145.6,224.7z"/>
			<path class="st20" d="M181.5,196c-0.9,6.4,0.7,11.6,1.8,14c2.2-8.9,3.3-15,3.9-19.2C184.7,190.7,182.1,191.6,181.5,196z"/>
			<path class="st10" d="M186.9,181.8c5.6,3.2,9.5,10.8,10.7,15.3L185.7,208c0,0-6.2-14.4-5.7-18.8
				C180.5,184.7,184.8,180.6,186.9,181.8z"/>
			<path class="st16" d="M165.8,150.4c-2.5,7.6-3.7,10.7-1.5,16.1c3.3,8.1,13.2,9.8,17.9,3.2c4.2-5.9,7.6-17.3,1.6-23.4
				C177.8,140.4,168.3,142.9,165.8,150.4z"/>
			<path class="st16" d="M178.3,157.2c-0.6,1.3-0.6,3-0.2,4.3c0.5,2,2,2.2,2.9,0.9c0.8-1.2,1.6-3.6,0.6-5.3
				C180.5,155.4,178.9,155.6,178.3,157.2z"/>
			<path class="st17" d="M168.6,141c-5.4-3-15.1,5.8-17.6,20.1c-1.8,10.3,20.2,15.2,34,15.1c-0.9-2.4-6.7-9.7-3-16.7
				c2.7-5.1,5.7-3.9,5.9-9.8C188.2,142.2,178.3,137.2,168.6,141z"/>
			<path class="st17" d="M180.9,144.2c6.3-0.6,12.6,5.6,7.9,11.7c0,0-3.4-3-8.2-2C177.7,154.6,180.9,144.2,180.9,144.2z"/>
			<path class="st17" d="M169.6,227.9c0,0-12.7,53.6-18.6,84.4c-6.3,32.5-36.3,66.4-36.3,66.4l-10.2-5.7c0,0,18.9-30.9,25-61.3
				c12.4-61.6,4-74,16-87.1L169.6,227.9z"/>
			<polygon class="st10" points="115.8,379.6 103,372.5 104.9,368.8 119.2,375.3 			"/>
			<path class="st20" d="M162.9,239.5c-9.9,8.6-8.8,39-7.8,52.7c4.1-19.5,9.1-41.2,12-53.7C166.1,237.7,164.7,238,162.9,239.5z"/>
			<path class="st17" d="M177.8,229.1c0,0,5.7,63.7,2.6,87.9c-3.2,25.3-19.7,80.2-19.7,80.2l-11.6-1.5c0,0,9.5-54.5,11.1-79.5
				c1.8-27.3-6.3-90.4-6.3-90.4L177.8,229.1z"/>
			<polygon class="st10" points="163.1,397.9 146.5,395.8 146.8,390.9 164.8,392.6 			"/>
			<g>
				<path class="st10" d="M145.3,222.7l-1.8,2.7c-0.1,0.2,0.1,0.5,0.5,0.5l34.3,4.6c0.3,0,0.6-0.1,0.6-0.3l0.6-2.9
					c0-0.2-0.2-0.4-0.5-0.4l-33.1-4.4C145.6,222.5,145.4,222.6,145.3,222.7z"/>
				<path class="st21" d="M145.3,222.7l-1.8,2.7c-0.1,0.2,0.1,0.5,0.5,0.5l34.3,4.6c0.3,0,0.6-0.1,0.6-0.3l0.6-2.9
					c0-0.2-0.2-0.4-0.5-0.4l-33.1-4.4C145.6,222.5,145.4,222.6,145.3,222.7z"/>
			</g>
			<path class="st17" d="M149.4,227l-0.9-0.1c-0.2,0-0.3-0.1-0.3-0.2l0.8-3.7c0-0.1,0.2-0.2,0.4-0.2l0.9,0.1c0.2,0,0.3,0.1,0.3,0.2
				l-0.8,3.7C149.7,226.9,149.5,227,149.4,227z"/>
			<path class="st17" d="M171.7,230l-0.9-0.1c-0.2,0-0.3-0.1-0.3-0.2l0.8-3.7c0-0.1,0.2-0.2,0.4-0.2l0.9,0.1c0.2,0,0.3,0.1,0.3,0.2
				l-0.8,3.7C172.1,230,171.9,230,171.7,230z"/>
		</g>
	</g>
</g>
</svg>
